<svg id="Layer_1" data-name="Layer 1" xmlns="http://www.w3.org/2000/svg" viewBox="0 0 216.27 67.48"><defs><style>.cls-1{font-size:11.94px;fill:#231f20;font-family:Aileron-Thin, Aileron;}.cls-2{letter-spacing:0em;}.cls-3{letter-spacing:0.01em;}.cls-4{letter-spacing:0em;}</style></defs><title>logo_alt</title><path d="M101.14,67.5c-.09.08.1.18.12.21C101.35,67.53,101.1,67.47,101.14,67.5Z" transform="translate(-44.18 -3.59)"/><polygon points="57.8 62.12 57.84 62.2 57.85 61.84 57.8 62.12"/><path d="M103.09,64.31c-.38-.09-.36.54-.66.71h-.1l.13.29C102.68,65,102.85,64.46,103.09,64.31Z" transform="translate(-44.18 -3.59)"/><path d="M104.29,64c-.15,0,0-.24-.17.15h.05Z" transform="translate(-44.18 -3.59)"/><path d="M104.17,64.18c-.11.15.17,0,0,0Z" transform="translate(-44.18 -3.59)"/><path d="M104.66,63.45l-.06.27c.1,0,.25-.15.24,0C104.95,63.43,104.85,63.42,104.66,63.45Z" transform="translate(-44.18 -3.59)"/><path d="M104.6,63.1l0,.13S104.63,63.22,104.6,63.1Z" transform="translate(-44.18 -3.59)"/><path d="M104.48,63.52l.08-.28c-.07,0-.16-.08,0,.12C104.44,63.28,104.49,63.38,104.48,63.52Z" transform="translate(-44.18 -3.59)"/><path d="M104.34,63.61c-.15.06-.3.17-.24-.1C103.84,63.91,104.08,64,104.34,63.61Z" transform="translate(-44.18 -3.59)"/><path d="M102.86,64l-.2.08v.2C102.66,64.19,103,64.07,102.86,64Z" transform="translate(-44.18 -3.59)"/><path d="M105.77,62.36c0-.06-.21-.06-.3-.11l0,.2C105.52,62.41,105.67,62.3,105.77,62.36Z" transform="translate(-44.18 -3.59)"/><path d="M105.47,62.25l.07-.3C105.38,62.14,105.4,62.21,105.47,62.25Z" transform="translate(-44.18 -3.59)"/><polygon points="60.14 59.23 60.07 59.76 60.19 59.16 60.14 59.23"/><polygon points="62.26 57.95 62.3 58.19 62.26 57.8 62.26 57.95"/><path d="M106.84,61c0,.18.29,0,.28.18a1.1,1.1,0,0,0,.1-.55A.58.58,0,0,1,106.84,61Z" transform="translate(-44.18 -3.59)"/><path d="M107.26,60.32a1.39,1.39,0,0,0,0,.29A.72.72,0,0,0,107.26,60.32Z" transform="translate(-44.18 -3.59)"/><path d="M105.86,61.61a.34.34,0,0,0,.3,0l-.23,0Z" transform="translate(-44.18 -3.59)"/><path d="M105.93,61.53h0l.16-.17Z" transform="translate(-44.18 -3.59)"/><path d="M105.84,61.63l0,0S105.83,61.61,105.84,61.63Z" transform="translate(-44.18 -3.59)"/><path d="M104.92,62.38c0-.2.12-.54-.23-.4C104.73,62.16,104.93,62.08,104.92,62.38Z" transform="translate(-44.18 -3.59)"/><path d="M105.55,61.57l-.22.2s.14,0,.14.14Z" transform="translate(-44.18 -3.59)"/><polygon points="61.41 57.83 61.38 57.98 61.46 57.91 61.41 57.83"/><path d="M106.79,60.58a.77.77,0,0,1,.17-.4,2.06,2.06,0,0,0-.36.35C106.63,60.6,106.68,60.73,106.79,60.58Z" transform="translate(-44.18 -3.59)"/><path d="M106.35,61v0S106.32,61,106.35,61Z" transform="translate(-44.18 -3.59)"/><path d="M107.92,59h0l0,0Z" transform="translate(-44.18 -3.59)"/><path d="M106.55,60.53a.25.25,0,0,0-.11.26,1.44,1.44,0,0,1,.16-.26S106.56,60.5,106.55,60.53Z" transform="translate(-44.18 -3.59)"/><path d="M107.45,59.92l-.23.1C107.31,60,107.48,60,107.45,59.92Z" transform="translate(-44.18 -3.59)"/><path d="M106.43,61v0C106.49,61,106.47,61,106.43,61Z" transform="translate(-44.18 -3.59)"/><path d="M106.43,61a.71.71,0,0,0,0-.21.87.87,0,0,0-.07.21Z" transform="translate(-44.18 -3.59)"/><path d="M107.14,57.77a.39.39,0,0,1-.27.6c-.06.31.56.58,1,.61-.06-.06-.12-.11,0-.41-.15,0-.6.34-.59,0s.25-.2.45-.28c-.29,0,0-.6-.31-.77l-.11.34S107.24,57.73,107.14,57.77Z" transform="translate(-44.18 -3.59)"/><path d="M107.52,59.4l-.06.11a1,1,0,0,1,.47-.15c0-.21,0-.29,0-.34l-.39.44Z" transform="translate(-44.18 -3.59)"/><path d="M107.13,59.92c-.11-.21,0-.49-.29-.5-.21.28,0,.3-.07.52.31-.47,0,.2.34,0a1.33,1.33,0,0,1-.15.27l.26-.17h0s-.05,0,0,0h0l0-.07c.14-.1.06,0,0,.07l0,0h0l.26-.51A1.69,1.69,0,0,0,107.13,59.92Z" transform="translate(-44.18 -3.59)"/><path d="M104.52,61.45a.07.07,0,0,1,.05,0S104.56,61.4,104.52,61.45Z" transform="translate(-44.18 -3.59)"/><path d="M104.76,61.35c0,.05,0,.13-.06.22s-.08-.06-.14-.1-.05.32.18.18v0c.2-.13.59-.19.59-.14A1.53,1.53,0,0,0,104.76,61.35Z" transform="translate(-44.18 -3.59)"/><path d="M105.91,60.59l.21-.43-.29.07.1.06C105.72,60.47,105.87,60.51,105.91,60.59Z" transform="translate(-44.18 -3.59)"/><polygon points="63.86 55.42 64 55.61 63.92 55.2 63.86 55.42"/><polygon points="64.22 54.93 64.36 55.07 64.37 54.87 64.22 54.93"/><path d="M128,30.15l0-.14A.47.47,0,0,0,128,30.15Z" transform="translate(-44.18 -3.59)"/><path d="M127.34,30.92l.06.08C127.39,30.93,127.37,30.89,127.34,30.92Z" transform="translate(-44.18 -3.59)"/><path d="M117.73,46.83c.27,0,.63,0,.44-.16l-.21-.09A.44.44,0,0,1,117.73,46.83Z" transform="translate(-44.18 -3.59)"/><path d="M123.13,38H123l.08.24C123.12,38.18,123.12,38.1,123.13,38Z" transform="translate(-44.18 -3.59)"/><path d="M122.52,37.34l.27-.12A.91.91,0,0,0,122.52,37.34Z" transform="translate(-44.18 -3.59)"/><path d="M131.2,25.75l-.07-.26C131,25.68,131.13,25.67,131.2,25.75Z" transform="translate(-44.18 -3.59)"/><path d="M112.24,53.6a1.21,1.21,0,0,0,.37-.26C112.38,53.43,112.13,53.44,112.24,53.6Z" transform="translate(-44.18 -3.59)"/><path d="M129.52,31.89c0-.09,0-.15,0-.17S129.47,31.87,129.52,31.89Z" transform="translate(-44.18 -3.59)"/><path d="M112.92,53l-.1,0a1.07,1.07,0,0,1-.21.35C112.78,53.28,112.93,53.18,112.92,53Z" transform="translate(-44.18 -3.59)"/><path d="M143.69,10.44l0,0S143.7,10.42,143.69,10.44Z" transform="translate(-44.18 -3.59)"/><path d="M149,7.32a1.48,1.48,0,0,1-.13.19A.45.45,0,0,0,149,7.32Z" transform="translate(-44.18 -3.59)"/><path d="M110,56.67c-.07.11,0,0,0,0Z" transform="translate(-44.18 -3.59)"/><path d="M108.94,56.62a.14.14,0,0,0-.05-.11A.18.18,0,0,1,108.94,56.62Z" transform="translate(-44.18 -3.59)"/><path d="M112.67,51.1h0C112.62,51.1,112.63,51.1,112.67,51.1Z" transform="translate(-44.18 -3.59)"/><path d="M109.8,56.76l.15-.09Z" transform="translate(-44.18 -3.59)"/><path d="M109.9,56.8l-.09.08S109.86,56.91,109.9,56.8Z" transform="translate(-44.18 -3.59)"/><path d="M110.11,56.52a.75.75,0,0,1-.15.15h0Z" transform="translate(-44.18 -3.59)"/><path d="M137.52,19.07h0C137.57,18.9,137.54,19,137.52,19.07Z" transform="translate(-44.18 -3.59)"/><path d="M118.08,42.79s0,0,0,0h0Z" transform="translate(-44.18 -3.59)"/><path d="M118.24,42.33c.09.32,0,.39-.15.47l.58.27Z" transform="translate(-44.18 -3.59)"/><path d="M129.42,28.24l-.36.13c0-.51.26-.66-.15-.59.5.46-.74,1-.24,1.49l-.25.08s0-.08.06-.12c-.52.12.19.55-.22.91-.16.11-.32.15-.3,0l-.13.43c-.09.09-.16,0-.07-.1l-.36.53v0a2.7,2.7,0,0,1,0,.52c-.18.07,0-.11-.1-.13l-.09.38c-.23,0-.18-.33,0-.51-.74-.17,0,.34-.8.64l.14-.31c-.44-.07-.49.22-.91.36.15,0,.94-.21.84.19a.43.43,0,0,0-.24.39c-.19-.15-.27,0-.42.25l-.24-.21c-.1.27,0,.36.05.57-.21.22-.45.11-.66,0-.34.35.52,0,.21.47-.35.24-.42.54-.58,1-.26.15-.12-.16-.26-.14l0,.36s-.09,0-.12-.05c-.06.23.24.21.1.53.22.29-.83.21-.77.78-.13,0-.12-.16-.24-.21A3.11,3.11,0,0,0,123.2,37l-.41.18c.37-.08.36.39.34.79l.36,0-.19.51c-.08,0-.13-.09-.18-.24a1.19,1.19,0,0,0,0,.12c-.21.07-.29-.12-.35-.34l.27,0a1,1,0,0,0-.33-.55.36.36,0,0,1,0,.19c0-.06,0-.11-.08-.11s0,.08,0,.2l-.35-.13.09.11-.6.39a4,4,0,0,1-.24,2c-.08-.31-.31-.3-.54-.5.39,0,.26-.55.57-.82-.16.14-.24,0-.25-.06l-.21.74c-.19-.17-.24,0-.44.08.48.2-.07.62-.13.95-.14-.09-.23-.25,0-.5-.54.07.14.76-.35.86.05-.07.1-.09.05-.17,0,.25-.41.56-.45.38l.05-.07c-.41.41-1.09,1.36-.82,1.69a3.62,3.62,0,0,1-.4-.46l.48,1.69c-.23-.3-1.12-.57-1-1.07a.68.68,0,0,0-.36.47c.1,0,.56.15.5.27-.54,0-.32.05-.86.17.15-.06.5.42.35.58,0-.08-.45-.34-.45-.44l.1.78c0-.17-.36-.32-.56-.32.12,0-.3.36-.35.51l.25-.1c-.45.43.23,1-.17,1.43,0-.13-.44-.59-.69-.39.14.29.68,1.36.52,1.93l-.19,0-.11.44a10.26,10.26,0,0,1-.46-2.15c-.25.1-.19-.07-.4.21-.2,0-.06-.29,0-.38l-.58.57c.29.18-.12.69.11.84l.28-.9a1.07,1.07,0,0,1,0,1.4c-.2,0-.4-.46-.49-.52,0,.13-.17.56-.26.55v-.3c-.3.17,0,.69-.47.78-.1.09-.59,0-.44.18a3.33,3.33,0,0,1,1.52,1.07,4.26,4.26,0,0,1-1,.31c-.37,0-.35-.7-.67-.72a.46.46,0,0,1,.08.29c-.15.06-.19-.22-.34,0,.23.25-.41.46.14.29-.11.29-.25.2-.46.48.24.05.39.71.28,1a.41.41,0,0,0-.25-.09c-.4.45-.73.61-1.08,1.05-.1,0-.35.14-.39,0a.54.54,0,0,1-.06.37c-.44.08.21-.33-.23-.35.14.14-.07.52-.13.79.29.13.4-.41.46-.68a1.33,1.33,0,0,1,.19,1.46c-.21.43-.34,0-.34.09-.61.64.11,1-.59,1.43-.39.06-.43-.32-.62-.4.16-.36.5-.35.65-.56l-.3.17a.57.57,0,0,1,.26-.45c-.34,0-1,1.13-1.57,1.53,0,.15-.06.37.08.36l.11-.19c.29,0,0,.5.23.35a1.31,1.31,0,0,1-.43,1l-.29-.13c.08,0,.31-.09.31-.24,0,.22-.71.23-.52.62l.34-.09c-.06.32,0,.81-.33,1,.34.06,0-.09.46-.06-.48-.1.59-.71,0-.72.49.05.42-.25.91-.29-.09-.05-.23,0,0-.23a.42.42,0,0,1,0-.11h0s0,0,0,0a.37.37,0,0,1-.22,0c-.09-.26.22-.63.23-.84s0,.13.19.12v-.3c.19.12.59-.14.43.27l.25-.29a.86.86,0,0,0,.52-.51c.15-.11.09-.51.13-.28l.26-.55,0,0c.39-.44.47-1.18,1.2-1.45a1.39,1.39,0,0,1,.41-.61l.19.07c.11-.24.63-.48.54-.69.58.11.86-.89,1.21-1.18l-.19-.17a3.24,3.24,0,0,0,.49-.87l-.19-.12c.06-.37.65-.56,1-1,0,.08-.06.17-.15.21.78-.17.53-1.26,1.18-1.47a.31.31,0,0,1,.22-.26.06.06,0,0,0,0,0l0,0,.22-.08a.64.64,0,0,0-.2.05,1.64,1.64,0,0,0,.2-.39l.23.1,0,0c.17-.07,0-.17-.2-.22a.78.78,0,0,0,0-.26c.38.14.16-.41.6-.29-.09-.21.39-.73.11-1.06,0,0,.1,0,0,.08.15-.11.3-.22.31-.42l.29.13-.08-.56c.29-.07.44-.08.48.25.08-.67.18-.45.21-1.05l.14.14c.1-.14.07-.52.26-.5.54-.07,1.24-1.47,2.14-2-.58-.21.49-.2.17-.51.14,0,.29,0,.28.18.21-.48.65-.46.57-1,.14,0,.09.21.19.22s0-.2.11-.19,0,.13,0,.23c.31-.42,0-.73-.28-1,.31-.09.37-.21.29-.52.16,0,.36,0,.2.26.13-.13.84-.75.61-1,.1,0,.18-.18.18-.24a4.87,4.87,0,0,0,.54-.65l-.11.05c-.2-.36.14-.31.31-.6l0,0c.68-.41.1-.33.8-.71l-.21-.12c-.36-.38.64-.32.75-.77l-.2,0c0-.29,1-.07,1.15-.21s0,.11,0,.18c.62-.29-.2-.26,0-.66.18,0,.27.35.48.13.2,0,.13-1,.64-1.16-.16,0-.32,0-.26-.25s.93-.37.79-.86a.14.14,0,0,1,.12,0c.07-.26.36-.74.28-1,.79.34.65-1.45,1.24-1l.44-.62,0,.06a.83.83,0,0,0,.27-.84c.11-.06.12.05.14.09a1.3,1.3,0,0,0,.66-1.24l.23.11c0-.22.95-.56,1.16-1.28a.17.17,0,0,1,0,.13c.26-.79,1.71-1,1.19-1.82l.15-.54c-.47.48-.24-.32-.53-.2.12-.24.64-.36.47-.08h-.07c.29.39.65-.55.89-.33.81-1,1.81-1.88,2.6-2.83l-.37-.12.29-.32c.14,0,.32.06.11.29.26,0,.19-.51.13-.57.49-.38.19.45.31.31l.14-.21-.07,0c0-.25-.1-.36.14-.64s.25,0,.32,0,0,0,.1-.1l.36-.4h-.36c0-.28.33-.39-.08-.4.62,0,1.41-1.47,1.67-1.54a1.68,1.68,0,0,1,.53-1c-.11,0-.4-.11-.15-.37.44.52.63-.33,1.19-.25-.41,0,.57-.84,0-.81.23-.2.21.14.47.07.24-.71,1.1-1.11,1.58-1.84-.06-.07-.26,0-.24-.26l.63-.08c.07-.16-.3-.44.14-.5-.09,0-.21,0-.16-.14,1.4-1.06,1.91-2.94,3.62-3.79-.28.08-.2-.06-.09-.2-.1.07-.17-.14-.28-.19L149.3,7c-.18-.31.47-.62.27-.88l-.1.21c-.1-.47-.91-.18-1.26-.52.12.53-1.05.31-.93,1.13-.15,0-.05-.18-.18-.2.07.24,0,.4-.27.59l0-.06a10.42,10.42,0,0,1-1.65,1.6l.23.09a.72.72,0,0,1-.36.18c.13.42.4-.46.56,0-.56-.08-1,1.18-1.51,1-.21.26.28.1.06.35l-.17,0,.1.18a.39.39,0,0,1-.48,0s.07-.14.09-.19c-.31.11-.45.66-.56.7l.27-.19a17.07,17.07,0,0,0-1.62,2.41l.13,0c-.26.65-.43.34-.82,1v0a.82.82,0,0,1-.22.52c0-.23-.42.11-.38-.17-.28.71-.09.39-.06,1l-.21,0a.66.66,0,0,1-.1.61c.06-.33-.37,0-.32-.39-.8.35-.4,1.15-1.08,1.05.18.6.64-.34.6-.12.23,0,.12.47-.07.62s-.77-.08-1.15.41c0,0,0-.07.05-.12-.25.1-.15.46-.49.55.14.32-.24.28,0,.56l.28-.5c-.12.32.05.84-.45,1.11a.89.89,0,0,1,0-.39c-.19,0-.13.28-.32.33-.28-.28.36-.59.34-1.05-.23,0-.18.69-.41.28.27.54-.43.43-.37,1l-.17-.17a.69.69,0,0,1-.09.34l-.1-.36c0,.43-.59.37-.68.71.42-.54.32.06.63-.06-.28.85-.79,0-1.29.79.05-.12.41-.28.37-.06a1.19,1.19,0,0,1-.53.24c-.35.52.25.08.2.38-.36,0-.1.31-.2.58l-.19-.15c-.56.46.27.46-.27.84l-.09-.42-.14.31-.17-.23c-.07.41-.18.47-.46.69a.34.34,0,0,1,.12.56c-.25.08-.1-.24-.36.13-.05-.17-.13-.38.16-.39,0-.06-.06-.17-.1-.24-.27.08-.39.43-.49.56a.36.36,0,0,1,.15-.1l-.14.71c-.13,0-.14-.09-.15-.19-.06.12,0,.26-.14.42-.12-.16-.29-.28-.19-.55l-.22.62c-.09,0-.38.1-.39,0-.3.19-.23.89-.63,1.15a.27.27,0,0,1,0,.19c-.3.3-.72.45-.83,1h-.45c-.18.36.59,0,.28.57-.2.43-.34-.05-.52,0,0,.29,0,.83-.47,1C129.24,28.42,129.35,28.36,129.42,28.24Zm-2.92,3.9c0-.11,0-.35.17-.31C126.81,32.08,126.66,32.07,126.49,32.14Zm-4.18,6.14c0-.1.08-.16.23-.2A.42.42,0,0,1,122.32,38.29ZM110.74,55.44v0C110.94,55.32,110.86,55.35,110.74,55.44Zm-.35.28a.07.07,0,0,0,.06.08c0-.06,0-.14.11-.22C110.49,55.56,110.42,55.58,110.38,55.71ZM139.65,19l-.1,0C139.62,18.84,139.63,18.92,139.65,19Z" transform="translate(-44.18 -3.59)"/><path d="M122.59,37.42a.31.31,0,0,1,.13.05C122.7,37.42,122.67,37.39,122.59,37.42Z" transform="translate(-44.18 -3.59)"/><path d="M131.21,25.8h0l0,0Z" transform="translate(-44.18 -3.59)"/><path d="M113,49.15a.36.36,0,0,1,.21-.06S113.12,49.05,113,49.15Z" transform="translate(-44.18 -3.59)"/><path d="M109.25,57.78l.13-.26a.35.35,0,0,1-.22.15S109.3,57.71,109.25,57.78Z" transform="translate(-44.18 -3.59)"/><path d="M106.57,58.74c0,.05-.05.07-.05.12l.09.06C106.71,58.78,106.72,58.63,106.57,58.74Z" transform="translate(-44.18 -3.59)"/><path d="M108.46,57.48c-.17-.11-.23.07-.32.25l0,0C108.35,57.92,108.41,57.7,108.46,57.48Z" transform="translate(-44.18 -3.59)"/><path d="M108.12,57.77a.57.57,0,0,1-.11.14C108.08,58,108.07,57.87,108.12,57.77Z" transform="translate(-44.18 -3.59)"/><path d="M110.14,56.23c-.1,0,.17.21.07.2C110.34,56.67,110.35,55.75,110.14,56.23Z" transform="translate(-44.18 -3.59)"/><polygon points="63.67 53.6 63.91 53.7 63.82 53.49 63.67 53.6"/><path d="M109,56.09l-.25.2s0,.07,0,.12C108.85,56.27,109,56.13,109,56.09Z" transform="translate(-44.18 -3.59)"/><path d="M108.72,56.41a.42.42,0,0,0-.13.22A.93.93,0,0,0,108.72,56.41Z" transform="translate(-44.18 -3.59)"/><polygon points="63.88 53.22 63.98 53.17 64.13 53.01 63.88 53.22"/><path d="M111.1,53.49l.16-.31c0-.08-.14,0-.2.08S111,53.48,111.1,53.49Z" transform="translate(-44.18 -3.59)"/><path d="M109.92,53.87c.1,0,.15,0,.24,0l-.24-.2Z" transform="translate(-44.18 -3.59)"/><path d="M110.48,53c0-.08.12-.54-.14-.19C110.39,52.94,110.23,53.25,110.48,53Z" transform="translate(-44.18 -3.59)"/><polygon points="69.84 45.68 69.79 45.75 70.19 46.06 69.84 45.68"/><path d="M115.9,45c-.35.24.19.27-.16.46,0,.15.28-.16.3,0C116.1,45.14,116.23,45.08,115.9,45Z" transform="translate(-44.18 -3.59)"/><path d="M116,45.41a.86.86,0,0,0,0,.15A.39.39,0,0,0,116,45.41Z" transform="translate(-44.18 -3.59)"/><polygon points="105.63 3.15 105.88 3.02 105.64 3.04 105.63 3.15"/><path d="M149.82,6.12l.29.15L150,6C150,6,149.91,6.13,149.82,6.12Z" transform="translate(-44.18 -3.59)"/><path d="M125.53,32.3l0,.06c.09,0,.13,0,.22-.11Z" transform="translate(-44.18 -3.59)"/><polygon points="83.75 26.1 83.71 26.15 84.01 26.24 83.75 26.1"/><path d="M129.49,27.14c-.09.09-.12.24-.21.33C129.41,27.23,129.8,27.34,129.49,27.14Z" transform="translate(-44.18 -3.59)"/><path d="M72.33,51.76v.74H44.18V3.59H45V51.76Z" transform="translate(-44.18 -3.59)"/><path d="M104.57,18.28V52.5h-.23q-.54,0-.54-.56l-.15-6.56a22.94,22.94,0,0,1-2.95,3.18A17.69,17.69,0,0,1,97.21,51a18.24,18.24,0,0,1-3.94,1.54,16.72,16.72,0,0,1-4.25.54q-6.28,0-9.34-3.39t-3.06-9.46V18.28h1V40.19a17.44,17.44,0,0,0,.69,5.11,9.84,9.84,0,0,0,2.13,3.82A9.22,9.22,0,0,0,84,51.51a14.25,14.25,0,0,0,5.09.82,16,16,0,0,0,8.12-2.13,21.27,21.27,0,0,0,6.51-5.9v-26Z" transform="translate(-44.18 -3.59)"/><path d="M165.06,17.69a18.11,18.11,0,0,1,7,1.27,14.19,14.19,0,0,1,5.15,3.58,15.26,15.26,0,0,1,3.16,5.56,23.11,23.11,0,0,1,1.07,7.24,22.78,22.78,0,0,1-1.07,7.2,15.3,15.3,0,0,1-3.16,5.53,13.83,13.83,0,0,1-5.15,3.54,20.48,20.48,0,0,1-14,0,13.85,13.85,0,0,1-5.13-3.54,15.28,15.28,0,0,1-3.16-5.53,22.76,22.76,0,0,1-1.07-7.2,23.09,23.09,0,0,1,1.07-7.24,15.25,15.25,0,0,1,3.16-5.56A14.22,14.22,0,0,1,158,19,18.07,18.07,0,0,1,165.06,17.69Zm0,34.47a17.29,17.29,0,0,0,6.74-1.22,13.07,13.07,0,0,0,4.84-3.42,14.49,14.49,0,0,0,2.91-5.3,22.84,22.84,0,0,0,1-6.87,23,23,0,0,0-1-6.89,14.83,14.83,0,0,0-2.91-5.35,13.07,13.07,0,0,0-4.84-3.47,19,19,0,0,0-13.49,0,13.09,13.09,0,0,0-4.82,3.47,14.82,14.82,0,0,0-2.91,5.35,23,23,0,0,0-1,6.89,22.84,22.84,0,0,0,1,6.87,14.49,14.49,0,0,0,2.91,5.3,13.09,13.09,0,0,0,4.82,3.42A17.25,17.25,0,0,0,165.06,52.15Z" transform="translate(-44.18 -3.59)"/><path d="M220.76,18.28,204.44,52.5h-.69L187.44,18.28H188a.62.62,0,0,1,.46.16,1.14,1.14,0,0,1,.23.33L203.6,50.13a3.37,3.37,0,0,1,.31.65q.11.33.19.65.08-.31.19-.65a3.32,3.32,0,0,1,.31-.65l14.94-31.36a.79.79,0,0,1,.69-.49Z" transform="translate(-44.18 -3.59)"/><path d="M243.1,17.69a18.11,18.11,0,0,1,7,1.27,14.19,14.19,0,0,1,5.15,3.58,15.26,15.26,0,0,1,3.16,5.56,23.11,23.11,0,0,1,1.07,7.24,22.78,22.78,0,0,1-1.07,7.2,15.3,15.3,0,0,1-3.16,5.53,13.83,13.83,0,0,1-5.15,3.54,20.48,20.48,0,0,1-14,0,13.85,13.85,0,0,1-5.13-3.54,15.28,15.28,0,0,1-3.16-5.53,22.76,22.76,0,0,1-1.07-7.2,23.09,23.09,0,0,1,1.07-7.24,15.25,15.25,0,0,1,3.16-5.56A14.22,14.22,0,0,1,236.08,19,18.07,18.07,0,0,1,243.1,17.69Zm0,34.47a17.29,17.29,0,0,0,6.74-1.22,13.07,13.07,0,0,0,4.84-3.42,14.49,14.49,0,0,0,2.91-5.3,22.84,22.84,0,0,0,1-6.87,23,23,0,0,0-1-6.89,14.83,14.83,0,0,0-2.91-5.35,13.07,13.07,0,0,0-4.84-3.47,19,19,0,0,0-13.49,0,13.09,13.09,0,0,0-4.82,3.47,14.82,14.82,0,0,0-2.91,5.35,23,23,0,0,0-1,6.89,22.84,22.84,0,0,0,1,6.87,14.49,14.49,0,0,0,2.91,5.3,13.09,13.09,0,0,0,4.82,3.42A17.25,17.25,0,0,0,243.1,52.15Z" transform="translate(-44.18 -3.59)"/><polygon points="67.8 14.59 69.08 14.78 96.58 48.77 95.3 48.58 67.8 14.59"/><text class="cls-1" transform="translate(100.11 64.82) scale(1.22 1)">LUX<tspan class="cls-2" x="20.94" y="0">O</tspan><tspan class="cls-3" x="29.57" y="0">V</tspan><tspan class="cls-4" x="36.79" y="0">O STUDIOS</tspan></text><rect x="100.17" y="52.82" width="115.48" height="1.3"/></svg>