<svg id="Layer_1" data-name="Layer 1" xmlns="http://www.w3.org/2000/svg" viewBox="0 0 308 72"><defs><style>.cls-1{font-size:11.94px;fill:#231f20;font-family:Aileron-Thin, Aileron;}.cls-2{letter-spacing:0em;}.cls-3{letter-spacing:0.01em;}.cls-4{letter-spacing:0em;}</style></defs><title>LuxovoStudiosSmallBlackLogo2020</title><path d="M69.57,69.17c-.09.08.1.18.12.21C69.77,69.21,69.52,69.14,69.57,69.17Z"/><polygon points="70.39 67.38 70.44 67.46 70.45 67.11 70.39 67.38"/><path d="M71.52,66c-.38-.09-.36.54-.66.71h-.1l.13.29C71.1,66.65,71.27,66.13,71.52,66Z"/><path d="M72.72,65.72c-.15,0,0-.24-.17.15h.05Z"/><path d="M72.6,65.86c-.11.15.17,0,0,0Z"/><path d="M73.08,65.13,73,65.4c.1,0,.25-.15.24,0C73.37,65.11,73.28,65.1,73.08,65.13Z"/><path d="M73,64.78l0,.13S73.06,64.9,73,64.78Z"/><path d="M72.9,65.19l.08-.28c-.07,0-.16-.08,0,.12C72.87,65,72.91,65.06,72.9,65.19Z"/><path d="M72.76,65.28c-.15.06-.3.17-.24-.1C72.26,65.58,72.5,65.68,72.76,65.28Z"/><path d="M71.29,65.68l-.2.08V66C71.08,65.86,71.38,65.74,71.29,65.68Z"/><path d="M74.19,64c0-.06-.21-.06-.3-.11l0,.2C73.95,64.08,74.1,64,74.19,64Z"/><path d="M73.89,63.92l.07-.3C73.8,63.81,73.82,63.88,73.89,63.92Z"/><polygon points="72.74 64.5 72.67 65.02 72.79 64.43 72.74 64.5"/><polygon points="74.86 63.22 74.89 63.45 74.86 63.07 74.86 63.22"/><path d="M75.27,62.66c0,.18.29,0,.28.18a1.1,1.1,0,0,0,.1-.55A.58.58,0,0,1,75.27,62.66Z"/><path d="M75.68,62a1.39,1.39,0,0,0,0,.29A.72.72,0,0,0,75.68,62Z"/><path d="M74.29,63.29a.34.34,0,0,0,.3,0l-.23,0Z"/><path d="M74.35,63.2h0l.16-.17Z"/><path d="M74.27,63.31l0,0S74.25,63.28,74.27,63.31Z"/><path d="M73.34,64.05c0-.2.12-.54-.23-.4C73.16,63.83,73.35,63.75,73.34,64.05Z"/><path d="M74,63.24l-.22.2s.14,0,.14.14Z"/><polygon points="74.01 63.09 73.98 63.24 74.06 63.17 74.01 63.09"/><path d="M75.21,62.26a.77.77,0,0,1,.17-.4,2.06,2.06,0,0,0-.36.35C75.06,62.27,75.11,62.4,75.21,62.26Z"/><path d="M74.78,62.71v0S74.75,62.68,74.78,62.71Z"/><path d="M76.34,60.66h0l0,0Z"/><path d="M75,62.21a.25.25,0,0,0-.11.26,1.44,1.44,0,0,1,.16-.26S75,62.17,75,62.21Z"/><path d="M75.87,61.6l-.23.1C75.74,61.68,75.9,61.65,75.87,61.6Z"/><path d="M74.86,62.68v0C74.92,62.7,74.89,62.69,74.86,62.68Z"/><path d="M74.86,62.68a.71.71,0,0,0,0-.21.87.87,0,0,0-.07.21Z"/><path d="M75.56,59.44a.39.39,0,0,1-.27.6c-.06.31.56.58,1,.61-.06-.06-.12-.11,0-.41-.15,0-.6.34-.59,0s.25-.2.45-.28c-.29,0,0-.6-.31-.77l-.11.34S75.66,59.4,75.56,59.44Z"/><path d="M75.94,61.07l-.06.11a1,1,0,0,1,.47-.15c0-.21,0-.29,0-.34l-.39.44Z"/><path d="M75.55,61.6c-.11-.21,0-.49-.29-.5-.21.28,0,.3-.07.52.31-.47,0,.2.34,0a1.33,1.33,0,0,1-.15.27l.26-.17h0s-.05,0,0,0h0l0-.07c.14-.1.06,0,0,.07l0,0h0l.26-.51A1.69,1.69,0,0,0,75.55,61.6Z"/><path d="M72.94,63.13a.07.07,0,0,1,.05,0S73,63.08,72.94,63.13Z"/><path d="M73.19,63c0,.05,0,.13-.06.22s-.08-.06-.14-.1-.05.32.18.18v0c.2-.13.59-.19.59-.14A1.53,1.53,0,0,0,73.19,63Z"/><path d="M74.34,62.27l.21-.43-.29.07.1.06C74.15,62.14,74.29,62.19,74.34,62.27Z"/><polygon points="76.46 60.69 76.6 60.88 76.52 60.47 76.46 60.69"/><polygon points="76.82 60.19 76.96 60.34 76.97 60.13 76.82 60.19"/><path d="M96.4,31.82l0-.14A.47.47,0,0,0,96.4,31.82Z"/><path d="M95.76,32.59l.06.08C95.81,32.6,95.79,32.56,95.76,32.59Z"/><path d="M86.16,48.5c.27,0,.63,0,.44-.16l-.21-.09A.44.44,0,0,1,86.16,48.5Z"/><path d="M91.55,39.69h-.09l.08.24C91.54,39.86,91.55,39.78,91.55,39.69Z"/><path d="M90.94,39l.27-.12A.91.91,0,0,0,90.94,39Z"/><path d="M99.62,27.42l-.07-.26C99.39,27.36,99.55,27.34,99.62,27.42Z"/><path d="M80.66,55.27A1.21,1.21,0,0,0,81,55C80.8,55.1,80.55,55.12,80.66,55.27Z"/><path d="M97.95,33.57c0-.09,0-.15,0-.17S97.9,33.55,97.95,33.57Z"/><path d="M81.34,54.63l-.1,0A1.07,1.07,0,0,1,81,55C81.2,55,81.35,54.85,81.34,54.63Z"/><path d="M112.11,12.11l0,0S112.13,12.09,112.11,12.11Z"/><path d="M117.42,9a1.48,1.48,0,0,1-.13.19A.45.45,0,0,0,117.42,9Z"/><path d="M78.43,58.34c-.07.11,0,0,0,0Z"/><path d="M77.36,58.29a.14.14,0,0,0-.05-.11A.18.18,0,0,1,77.36,58.29Z"/><path d="M81.09,52.78h0C81,52.77,81.05,52.77,81.09,52.78Z"/><path d="M78.23,58.43l.15-.09Z"/><path d="M78.32,58.47l-.09.08S78.28,58.59,78.32,58.47Z"/><path d="M78.53,58.19a.75.75,0,0,1-.15.15h0Z"/><path d="M105.95,20.74h0C106,20.57,106,20.63,105.95,20.74Z"/><path d="M86.5,44.47s0,0,0,0h0Z"/><path d="M86.66,44c.09.32,0,.39-.15.47l.58.27Z"/><path d="M97.84,29.92l-.36.13c0-.51.26-.66-.15-.59.5.46-.74,1-.24,1.49l-.25.08s0-.08.06-.12c-.52.12.19.55-.22.91-.16.11-.32.15-.3,0l-.13.43c-.09.09-.16,0-.07-.1l-.36.53v0a2.7,2.7,0,0,1,0,.52c-.18.07,0-.11-.1-.13l-.09.38c-.23,0-.18-.33,0-.51-.74-.17,0,.34-.8.64l.14-.31c-.44-.07-.49.22-.91.36.15,0,.94-.21.84.19a.43.43,0,0,0-.24.39c-.19-.15-.27,0-.42.25L94,34.25c-.1.27,0,.36.05.57-.21.22-.45.11-.66,0-.34.35.52,0,.21.47-.35.24-.42.54-.58,1-.26.15-.12-.16-.26-.14l0,.36s-.09,0-.12-.05c-.06.23.24.21.1.53.22.29-.83.21-.77.78-.13,0-.12-.16-.24-.21a3.11,3.11,0,0,0-.17,1.08l-.41.18c.37-.08.36.39.34.79l.36,0-.19.51c-.08,0-.13-.09-.18-.24a1.19,1.19,0,0,0,0,.12c-.21.07-.29-.12-.35-.34l.27,0a1,1,0,0,0-.33-.55.36.36,0,0,1,0,.19c0-.06,0-.11-.08-.11s0,.08,0,.2l-.35-.13.09.11-.6.39a4,4,0,0,1-.24,2c-.08-.31-.31-.3-.54-.5.39,0,.26-.55.57-.82-.16.14-.24,0-.25-.06l-.21.74c-.19-.17-.24,0-.44.08.48.2-.07.62-.13.95-.14-.09-.23-.25,0-.5-.54.07.14.76-.35.86.05-.07.1-.09.05-.17,0,.25-.41.56-.45.38l.05-.07c-.41.41-1.09,1.36-.82,1.69a3.62,3.62,0,0,1-.4-.46l.48,1.69c-.23-.3-1.12-.57-1-1.07a.68.68,0,0,0-.36.47c.1,0,.56.15.5.27-.54,0-.32.05-.86.17.15-.06.5.42.35.58,0-.08-.45-.34-.45-.44l.1.78c0-.17-.36-.32-.56-.32.12,0-.3.36-.35.51l.25-.1c-.45.43.23,1-.17,1.43,0-.13-.44-.59-.69-.39.14.29.68,1.36.52,1.93l-.19,0-.11.44A10.26,10.26,0,0,1,84,47.66c-.25.1-.19-.07-.4.21-.2,0-.06-.29,0-.38l-.58.57c.29.18-.12.69.11.84l.28-.9a1.07,1.07,0,0,1,0,1.4c-.2,0-.4-.46-.49-.52,0,.13-.17.56-.26.55v-.3c-.3.17,0,.69-.47.78-.1.09-.59,0-.44.18a3.33,3.33,0,0,1,1.52,1.07,4.26,4.26,0,0,1-1,.31c-.37,0-.35-.7-.67-.72a.46.46,0,0,1,.08.29c-.15.06-.19-.22-.34,0,.23.25-.41.46.14.29-.11.29-.25.2-.46.48.24.05.39.71.28,1a.41.41,0,0,0-.25-.09c-.4.45-.73.61-1.08,1.05-.1,0-.35.14-.39,0a.54.54,0,0,1-.06.37c-.44.08.21-.33-.23-.35.14.14-.07.52-.13.79.29.13.4-.41.46-.68a1.33,1.33,0,0,1,.19,1.46c-.21.43-.34,0-.34.09-.61.64.11,1-.59,1.43-.39.06-.43-.32-.62-.4.16-.36.5-.35.65-.56l-.3.17a.57.57,0,0,1,.26-.45c-.34,0-1,1.13-1.57,1.53,0,.15-.06.37.08.36l.11-.19c.29,0,0,.5.23.35a1.31,1.31,0,0,1-.43,1l-.29-.13c.08,0,.31-.09.31-.24,0,.22-.71.23-.52.62l.34-.09c-.06.32,0,.81-.33,1,.34.06,0-.09.46-.06-.48-.1.59-.71,0-.72.49.05.42-.25.91-.29-.09-.05-.23,0,0-.23a.42.42,0,0,1,0-.11h0s0,0,0,0a.37.37,0,0,1-.22,0c-.09-.26.22-.63.23-.84s0,.13.19.12v-.3c.19.12.59-.14.43.27l.25-.29a.86.86,0,0,0,.52-.51c.15-.11.09-.51.13-.28l.26-.55,0,0c.39-.44.47-1.18,1.2-1.45a1.39,1.39,0,0,1,.41-.61l.19.07c.11-.24.63-.48.54-.69.58.11.86-.89,1.21-1.18l-.19-.17a3.24,3.24,0,0,0,.49-.87l-.19-.12c.06-.37.65-.56,1-1,0,.08-.06.17-.15.21.78-.17.53-1.26,1.18-1.47a.31.31,0,0,1,.22-.26.06.06,0,0,0,0,0l0,0,.22-.08a.64.64,0,0,0-.2.05,1.64,1.64,0,0,0,.2-.39l.23.1,0,0c.17-.07,0-.17-.2-.22a.78.78,0,0,0,0-.26c.38.14.16-.41.6-.29-.09-.21.39-.73.11-1.06,0,0,.1,0,0,.08.15-.11.3-.22.31-.42l.29.13-.08-.56c.29-.07.44-.08.48.25.08-.67.18-.45.21-1.05l.14.14c.1-.14.07-.52.26-.5.54-.07,1.24-1.47,2.14-2-.58-.21.49-.2.17-.51.14,0,.29,0,.28.18.21-.48.65-.46.57-1,.14,0,.09.21.19.22s0-.2.11-.19,0,.13,0,.23c.31-.42,0-.73-.28-1,.31-.09.37-.21.29-.52.16,0,.36,0,.2.26.13-.13.84-.75.61-1,.1,0,.18-.18.18-.24a4.87,4.87,0,0,0,.54-.65l-.11.05c-.2-.36.14-.31.31-.6l0,0c.68-.41.1-.33.8-.71l-.21-.12c-.36-.38.64-.32.75-.77l-.2,0c0-.29,1-.07,1.15-.21s0,.11,0,.18c.62-.29-.2-.26,0-.66.18,0,.27.35.48.13.2,0,.13-1,.64-1.16-.16,0-.32,0-.26-.25s.93-.37.79-.86a.14.14,0,0,1,.12,0c.07-.26.36-.74.28-1,.79.34.65-1.45,1.24-1l.44-.62,0,.06a.83.83,0,0,0,.27-.84c.11-.06.12.05.14.09a1.3,1.3,0,0,0,.66-1.24l.23.11c0-.22.95-.56,1.16-1.28a.17.17,0,0,1,0,.13c.26-.79,1.71-1,1.19-1.82l.15-.54c-.47.48-.24-.32-.53-.2.12-.24.64-.36.47-.08h-.07c.29.39.65-.55.89-.33.81-1,1.81-1.88,2.6-2.83l-.37-.12.29-.32c.14,0,.32.06.11.29.26,0,.19-.51.13-.57.49-.38.19.45.31.31l.14-.21-.07,0c0-.25-.1-.36.14-.64s.25,0,.32,0,0,0,.1-.1l.36-.4h-.36c0-.28.33-.39-.08-.4.62,0,1.41-1.47,1.67-1.54a1.68,1.68,0,0,1,.53-1c-.11,0-.4-.11-.15-.37.44.52.63-.33,1.19-.25-.41,0,.57-.84,0-.81.23-.2.21.14.47.07.24-.71,1.1-1.11,1.58-1.84-.06-.07-.26,0-.24-.26l.63-.08c.07-.16-.3-.44.14-.5-.09,0-.21,0-.16-.14,1.4-1.06,1.91-2.94,3.62-3.79-.28.08-.2-.06-.09-.2-.1.07-.17-.14-.28-.19l.71-.36c-.18-.31.47-.62.27-.88l-.1.21c-.1-.47-.91-.18-1.26-.52.12.53-1.05.31-.93,1.13-.15,0-.05-.18-.18-.2.07.24,0,.4-.27.59l0-.06a10.42,10.42,0,0,1-1.65,1.6l.23.09a.72.72,0,0,1-.36.18c.13.42.4-.46.56,0-.56-.08-1,1.18-1.51,1-.21.26.28.1.06.35l-.17,0,.1.18a.39.39,0,0,1-.48,0s.07-.14.09-.19c-.31.11-.45.66-.56.7l.27-.19A17.07,17.07,0,0,0,110.21,15l.13,0c-.26.65-.43.34-.82,1v0a.82.82,0,0,1-.22.52c0-.23-.42.11-.38-.17-.28.71-.09.39-.06,1l-.21,0a.66.66,0,0,1-.1.61c.06-.33-.37,0-.32-.39-.8.35-.4,1.15-1.08,1.05.18.6.64-.34.6-.12.23,0,.12.47-.07.62s-.77-.08-1.15.41c0,0,0-.07.05-.12-.25.1-.15.46-.49.55.14.32-.24.28,0,.56l.28-.5c-.12.32.05.84-.45,1.11a.89.89,0,0,1,0-.39c-.19,0-.13.28-.32.33-.28-.28.36-.59.34-1.05-.23,0-.18.69-.41.28.27.54-.43.43-.37,1l-.17-.17a.69.69,0,0,1-.09.34l-.1-.36c0,.43-.59.37-.68.71.42-.54.32.06.63-.06-.28.85-.79,0-1.29.79.05-.12.41-.28.37-.06a1.19,1.19,0,0,1-.53.24c-.35.52.25.08.2.38-.36,0-.1.31-.2.58l-.19-.15c-.56.46.27.46-.27.84l-.09-.42-.14.31-.17-.23c-.07.41-.18.47-.46.69a.34.34,0,0,1,.12.56c-.25.08-.1-.24-.36.13-.05-.17-.13-.38.16-.39,0-.06-.06-.17-.1-.24-.27.08-.39.43-.49.56a.36.36,0,0,1,.15-.1l-.14.71c-.13,0-.14-.09-.15-.19-.06.12,0,.26-.14.42-.12-.16-.29-.28-.19-.55l-.22.62c-.09,0-.38.1-.39,0-.3.19-.23.89-.63,1.15a.27.27,0,0,1,0,.19c-.3.3-.72.45-.83,1h-.45c-.18.36.59,0,.28.57-.2.43-.34-.05-.52,0,0,.29,0,.83-.47,1C97.67,30.09,97.78,30,97.84,29.92Zm-2.92,3.9c0-.11,0-.35.17-.31C95.24,33.76,95.08,33.74,94.92,33.82ZM90.74,40c0-.1.08-.16.23-.2A.42.42,0,0,1,90.74,40ZM79.16,57.11v0C79.36,57,79.29,57,79.16,57.11Zm-.35.28a.07.07,0,0,0,.06.08c0-.06,0-.14.11-.22C78.91,57.23,78.84,57.25,78.8,57.39Zm29.27-36.71-.1,0C108,20.51,108.06,20.59,108.08,20.68Z"/><path d="M91,39.1a.31.31,0,0,1,.13.05C91.13,39.09,91.09,39.06,91,39.1Z"/><path d="M99.64,27.47h0l0,0Z"/><path d="M81.44,50.82a.36.36,0,0,1,.21-.06S81.54,50.72,81.44,50.82Z"/><path d="M77.68,59.45l.13-.26a.35.35,0,0,1-.22.15S77.73,59.38,77.68,59.45Z"/><path d="M75,60.42c0,.05-.05.07-.05.12l.09.06C75.14,60.46,75.14,60.31,75,60.42Z"/><path d="M76.89,59.15c-.17-.11-.23.07-.32.25l0,0C76.77,59.6,76.83,59.37,76.89,59.15Z"/><path d="M76.54,59.44a.57.57,0,0,1-.11.14C76.51,59.67,76.5,59.54,76.54,59.44Z"/><path d="M78.56,57.9c-.1,0,.17.21.07.2C78.77,58.34,78.77,57.42,78.56,57.9Z"/><polygon points="76.27 58.86 76.51 58.96 76.42 58.75 76.27 58.86"/><path d="M77.38,57.77l-.25.2s0,.07,0,.12C77.27,57.94,77.44,57.81,77.38,57.77Z"/><path d="M77.14,58.09a.42.42,0,0,0-.13.22A.93.93,0,0,0,77.14,58.09Z"/><polygon points="76.48 58.48 76.58 58.44 76.73 58.28 76.48 58.48"/><path d="M79.52,55.16l.16-.31c0-.08-.14,0-.2.08S79.43,55.15,79.52,55.16Z"/><path d="M78.34,55.54c.1,0,.15,0,.24,0l-.24-.2Z"/><path d="M78.91,54.72c0-.08.12-.54-.14-.19C78.81,54.61,78.66,54.92,78.91,54.72Z"/><polygon points="82.44 50.94 82.39 51.01 82.79 51.32 82.44 50.94"/><path d="M84.33,46.63c-.35.24.19.27-.16.46,0,.15.28-.16.3,0C84.52,46.81,84.66,46.76,84.33,46.63Z"/><path d="M84.47,47.08a.86.86,0,0,0,0,.15A.39.39,0,0,0,84.47,47.08Z"/><polygon points="118.23 8.42 118.47 8.28 118.23 8.3 118.23 8.42"/><path d="M118.25,7.79l.29.15-.13-.31C118.38,7.69,118.33,7.8,118.25,7.79Z"/><path d="M94,34,94,34c.09,0,.13,0,.22-.11Z"/><polygon points="96.35 31.36 96.31 31.41 96.61 31.5 96.35 31.36"/><path d="M97.92,28.82c-.09.09-.12.24-.21.33C97.83,28.9,98.22,29,97.92,28.82Z"/><path d="M40.75,53.43v.74H12.6V5.26h.82V53.43Z"/><path d="M73,20V54.17h-.23q-.54,0-.54-.56L72.07,47a22.94,22.94,0,0,1-2.95,3.18,17.69,17.69,0,0,1-3.48,2.43,18.24,18.24,0,0,1-3.94,1.54,16.72,16.72,0,0,1-4.25.54q-6.28,0-9.34-3.39T45,41.88V20h1V41.86A17.44,17.44,0,0,0,46.75,47a9.84,9.84,0,0,0,2.13,3.82,9.22,9.22,0,0,0,3.58,2.39,14.25,14.25,0,0,0,5.09.82,16,16,0,0,0,8.12-2.13A21.27,21.27,0,0,0,72.17,46V20Z"/><path d="M133.49,19.36a18.11,18.11,0,0,1,7,1.27,14.19,14.19,0,0,1,5.15,3.58,15.26,15.26,0,0,1,3.16,5.56A23.11,23.11,0,0,1,149.87,37a22.78,22.78,0,0,1-1.07,7.2,15.3,15.3,0,0,1-3.16,5.53,13.83,13.83,0,0,1-5.15,3.54,20.48,20.48,0,0,1-14,0,13.85,13.85,0,0,1-5.13-3.54,15.28,15.28,0,0,1-3.16-5.53A22.76,22.76,0,0,1,117.1,37a23.09,23.09,0,0,1,1.07-7.24,15.25,15.25,0,0,1,3.16-5.56,14.22,14.22,0,0,1,5.13-3.58A18.07,18.07,0,0,1,133.49,19.36Zm0,34.47a17.29,17.29,0,0,0,6.74-1.22,13.07,13.07,0,0,0,4.84-3.42,14.49,14.49,0,0,0,2.91-5.3,22.84,22.84,0,0,0,1-6.87,23,23,0,0,0-1-6.89,14.83,14.83,0,0,0-2.91-5.35,13.07,13.07,0,0,0-4.84-3.47,19,19,0,0,0-13.49,0,13.09,13.09,0,0,0-4.82,3.47A14.82,14.82,0,0,0,119,30.12,23,23,0,0,0,118,37a22.84,22.84,0,0,0,1,6.87,14.49,14.49,0,0,0,2.91,5.3,13.09,13.09,0,0,0,4.82,3.42A17.25,17.25,0,0,0,133.49,53.83Z"/><path d="M189.19,20,172.87,54.17h-.69L155.86,20h.54a.62.62,0,0,1,.46.16,1.14,1.14,0,0,1,.23.33L172,51.8a3.37,3.37,0,0,1,.31.65q.11.33.19.65.08-.31.19-.65a3.32,3.32,0,0,1,.31-.65L188,20.44a.79.79,0,0,1,.69-.49Z"/><path d="M211.52,19.36a18.11,18.11,0,0,1,7,1.27,14.19,14.19,0,0,1,5.15,3.58,15.26,15.26,0,0,1,3.16,5.56A23.11,23.11,0,0,1,227.9,37a22.78,22.78,0,0,1-1.07,7.2,15.3,15.3,0,0,1-3.16,5.53,13.83,13.83,0,0,1-5.15,3.54,20.48,20.48,0,0,1-14,0,13.85,13.85,0,0,1-5.13-3.54,15.28,15.28,0,0,1-3.16-5.53,22.76,22.76,0,0,1-1.07-7.2,23.09,23.09,0,0,1,1.07-7.24,15.25,15.25,0,0,1,3.16-5.56,14.22,14.22,0,0,1,5.13-3.58A18.07,18.07,0,0,1,211.52,19.36Zm0,34.47a17.29,17.29,0,0,0,6.74-1.22,13.07,13.07,0,0,0,4.84-3.42,14.49,14.49,0,0,0,2.91-5.3A22.84,22.84,0,0,0,227,37a23,23,0,0,0-1-6.89,14.83,14.83,0,0,0-2.91-5.35,13.07,13.07,0,0,0-4.84-3.47,19,19,0,0,0-13.49,0,13.09,13.09,0,0,0-4.82,3.47A14.82,14.82,0,0,0,197,30.12a23,23,0,0,0-1,6.89,22.84,22.84,0,0,0,1,6.87,14.49,14.49,0,0,0,2.91,5.3,13.09,13.09,0,0,0,4.82,3.42A17.25,17.25,0,0,0,211.52,53.83Z"/><polygon points="80.4 19.85 81.68 20.04 109.18 54.04 107.9 53.84 80.4 19.85"/><text class="cls-1" transform="translate(112.71 70.08) scale(1.22 1)">LUX<tspan class="cls-2" x="20.94" y="0">O</tspan><tspan class="cls-3" x="29.57" y="0">V</tspan><tspan class="cls-4" x="36.79" y="0">O STUDIOS</tspan></text><rect x="112.77" y="58.08" width="115.48" height="1.3"/></svg>