<?xml version="1.0" encoding="utf-8"?>
<!-- Generator: Adobe Illustrator 21.1.0, SVG Export Plug-In . SVG Version: 6.00 Build 0)  -->
<svg version="1.1" id="Layer_1" xmlns="http://www.w3.org/2000/svg" xmlns:xlink="http://www.w3.org/1999/xlink" x="0px" y="0px"
	 viewBox="0 0 120 63" style="enable-background:new 0 0 120 63;" xml:space="preserve">
<style type="text/css">
	.st0{font-family:'Aileron-Thin';}
	.st1{font-size:6.6509px;}
</style>
<g>
	<g>
		<g>
			<g>
				<g>
					<g>
						<path d="M23.2,61c-0.1,0.1,0,0.1,0,0.1C23.4,61,23.2,61,23.2,61z"/>
						<polygon points="24.2,59.4 24.2,59.5 24.3,59.2 						"/>
						<path d="M25.2,58.1c-0.2,0-0.4,0.5-0.6,0.7l-0.1,0l0,0.2C24.8,58.7,25,58.3,25.2,58.1z"/>
						<path d="M26.1,57.6c-0.1,0,0.1-0.2-0.2,0.2c0,0,0,0,0,0C26,57.7,26.1,57.7,26.1,57.6z"/>
						<path d="M26,57.8C25.9,57.9,26.1,57.7,26,57.8L26,57.8z"/>
						<path d="M26.5,57.1l-0.1,0.2c0.1,0,0.2-0.2,0.2-0.1C26.7,57,26.6,57,26.5,57.1z"/>
						<path d="M26.5,56.8L26.5,57C26.5,56.9,26.5,56.9,26.5,56.8z"/>
						<path d="M26.4,57.2l0.1-0.2c0,0-0.1,0-0.1,0.1C26.4,57,26.4,57.1,26.4,57.2z"/>
						<path d="M26.2,57.3c-0.1,0.1-0.2,0.2-0.1,0C25.8,57.6,26,57.7,26.2,57.3z"/>
						<path d="M25.2,57.9L25,58l0,0.2C25,58.1,25.2,58,25.2,57.9z"/>
						<path d="M27.5,56c0,0-0.1,0-0.2,0l-0.1,0.2C27.3,56.1,27.4,56,27.5,56z"/>
						<path d="M27.3,56l0.1-0.2C27.3,55.9,27.3,56,27.3,56z"/>
						<polygon points="26.4,56.7 26.2,57.1 26.5,56.6 						"/>
						<polygon points="28.1,55.2 28.1,55.4 28.2,55.1 						"/>
						<path d="M28.5,54.7c0,0.1,0.2,0,0.2,0.1c0.1-0.1,0.2-0.3,0.2-0.5C28.8,54.5,28.7,54.6,28.5,54.7z"/>
						<path d="M29,54.1c0,0.1-0.1,0.1-0.1,0.2C28.9,54.2,28.9,54.2,29,54.1z"/>
						<path d="M27.7,55.4c0,0,0.1,0,0.2-0.1L27.7,55.4C27.8,55.3,27.7,55.4,27.7,55.4z"/>
						<path d="M27.8,55.3L27.8,55.3c0.1-0.1,0.1-0.1,0.1-0.2C27.9,55.2,27.9,55.2,27.8,55.3z"/>
						<path d="M27.7,55.4C27.7,55.4,27.7,55.4,27.7,55.4C27.7,55.4,27.7,55.4,27.7,55.4z"/>
						<path d="M26.9,56.2c0-0.2,0.2-0.4-0.1-0.3C26.8,56.1,27,56,26.9,56.2z"/>
						<path d="M27.5,55.4l-0.2,0.2c0,0,0.1,0,0.1,0.1L27.5,55.4z"/>
						<polygon points="27.6,55.3 27.5,55.4 27.6,55.4 						"/>
						<path d="M28.6,54.4c0-0.1,0.1-0.2,0.2-0.3c-0.1,0.1-0.2,0.2-0.3,0.4C28.5,54.4,28.5,54.5,28.6,54.4z"/>
						<path d="M28.2,54.8C28.2,54.8,28.2,54.8,28.2,54.8C28.2,54.8,28.2,54.8,28.2,54.8z"/>
						<path d="M29.7,52.9C29.7,52.9,29.7,52.9,29.7,52.9C29.7,52.9,29.7,52.9,29.7,52.9L29.7,52.9z"/>
						<path d="M28.4,54.4c-0.1,0.1-0.1,0.2-0.1,0.2C28.3,54.6,28.4,54.5,28.4,54.4C28.5,54.4,28.4,54.4,28.4,54.4z"/>
						<path d="M29.2,53.7c-0.1,0-0.1,0.1-0.2,0.1C29.1,53.8,29.2,53.8,29.2,53.7z"/>
						<path d="M28.2,54.8C28.2,54.8,28.2,54.8,28.2,54.8C28.3,54.8,28.3,54.8,28.2,54.8z"/>
						<path d="M28.2,54.8c0-0.1,0-0.1,0-0.2C28.3,54.7,28.2,54.8,28.2,54.8C28.2,54.8,28.2,54.8,28.2,54.8z"/>
						<path d="M29.4,52.1c0.1,0.1-0.1,0.4-0.3,0.5c-0.1,0.3,0.3,0.3,0.5,0.3c0,0-0.1-0.1,0.1-0.3c-0.1,0-0.5,0.4-0.4,0.2
							c0.2-0.3,0.2-0.2,0.4-0.3c-0.2,0,0.1-0.5,0-0.5L29.4,52.1C29.5,52.2,29.5,52.1,29.4,52.1z"/>
						<path d="M29.3,53.3L29.3,53.3c0,0,0.1,0,0.3-0.1c0.1-0.2,0.1-0.2,0.1-0.3L29.3,53.3L29.3,53.3z"/>
						<path d="M29,53.8c0-0.1,0.1-0.4-0.1-0.3c-0.2,0.3-0.1,0.2-0.2,0.4C29,53.5,28.7,54.1,29,53.8c-0.1,0.1-0.1,0.2-0.2,0.2
							C28.9,54,28.9,53.9,29,53.8C29,53.9,29,53.9,29,53.8L29,53.8C29,53.9,29,53.9,29,53.8C29,53.9,28.9,53.9,29,53.8
							C29,53.9,29,53.9,29,53.8C29,53.8,29,53.8,29,53.8C29.1,53.7,29,53.8,29,53.8C29,53.9,29,53.9,29,53.8
							C29,53.9,29,53.9,29,53.8l0.3-0.4C29.2,53.5,29.1,53.6,29,53.8z"/>
						<path d="M26.8,55.6C26.9,55.6,26.9,55.6,26.8,55.6C26.9,55.5,26.9,55.5,26.8,55.6z"/>
						<path d="M27,55.4c0,0,0,0.1-0.1,0.2c-0.1,0.1,0,0-0.1-0.1c0,0.1-0.1,0.3,0.1,0.1l0,0c0.2-0.1,0.4-0.3,0.4-0.2
							C27.3,55.4,27.2,55.4,27,55.4z"/>
						<path d="M28,54.6l0.2-0.4L28,54.3l0.1,0C27.9,54.5,28,54.5,28,54.6z"/>
						<polygon points="29.8,52.9 29.8,53 29.9,52.7 						"/>
						<polygon points="30.1,52.4 30.2,52.5 30.2,52.4 						"/>
						<path d="M49.7,26l0.1-0.1C49.7,26,49.7,26,49.7,26z"/>
						<path d="M49.1,26.8L49.1,26.8C49.1,26.8,49.1,26.7,49.1,26.8z"/>
						<path d="M39.1,41.3c0.2-0.1,0.4-0.2,0.3-0.2l-0.1,0C39.2,41.1,39.1,41.2,39.1,41.3z"/>
						<path d="M44.7,33.2C44.6,33.2,44.6,33.2,44.7,33.2c-0.1,0.1-0.1,0.1-0.1,0.2C44.6,33.4,44.6,33.3,44.7,33.2z"/>
						<path d="M44.4,32.8l0.2-0.2C44.6,32.7,44.5,32.8,44.4,32.8z"/>
						<path d="M52.9,21.9l0-0.2C52.7,21.9,52.8,21.9,52.9,21.9z"/>
						<path d="M33.8,47.8c0.1-0.1,0.2-0.2,0.3-0.3C34,47.6,33.8,47.7,33.8,47.8z"/>
						<path d="M50.4,27c0-0.1,0-0.1,0-0.1C50.3,27,50.3,27,50.4,27z"/>
						<path d="M34.4,47.1C34.4,47.1,34.4,47.1,34.4,47.1c-0.1,0.2-0.2,0.3-0.3,0.4C34.3,47.4,34.4,47.3,34.4,47.1z"/>
						<path d="M64.7,7.2C64.7,7.2,64.7,7.2,64.7,7.2C64.7,7.2,64.7,7.2,64.7,7.2z"/>
						<path d="M69,3.6c0,0-0.1,0.1-0.1,0.2C68.9,3.8,68.9,3.7,69,3.6z"/>
						<path d="M31.6,50.6C31.6,50.7,31.6,50.7,31.6,50.6L31.6,50.6z"/>
						<path d="M30.9,50.8C30.9,50.8,30.9,50.8,30.9,50.8C30.9,50.8,30.9,50.8,30.9,50.8z"/>
						<path d="M34.7,45.7C34.7,45.7,34.7,45.7,34.7,45.7C34.6,45.7,34.6,45.7,34.7,45.7z"/>
						<path d="M31.5,50.8c0,0,0.1-0.1,0.1-0.1C31.6,50.7,31.5,50.7,31.5,50.8z"/>
						<path d="M31.5,50.8C31.5,50.8,31.5,50.8,31.5,50.8C31.5,50.9,31.5,50.9,31.5,50.8z"/>
						<path d="M31.7,50.5c0,0.1-0.1,0.1-0.1,0.1c0,0,0,0,0,0C31.6,50.6,31.7,50.6,31.7,50.5z"/>
						<path d="M58.6,15.3C58.6,15.3,58.6,15.3,58.6,15.3C58.7,15.2,58.7,15.2,58.6,15.3z"/>
						<path d="M40.2,38.1C40.2,38.1,40.2,38.1,40.2,38.1C40.2,38.1,40.2,38.1,40.2,38.1L40.2,38.1z"/>
						<path d="M40.4,37.7c0,0.2-0.1,0.3-0.2,0.4l0.3,0.1L40.4,37.7z"/>
						<path d="M51.1,24.2l-0.3,0.2c0.1-0.4,0.3-0.6,0-0.4c0.2,0.2-0.7,1-0.5,1.2l-0.2,0.1c0,0,0-0.1,0.1-0.1c-0.4,0.2,0,0.4-0.4,0.8
							c-0.1,0.1-0.2,0.2-0.2,0.1l-0.2,0.4c-0.1,0.1-0.1,0,0-0.1l-0.4,0.5l0,0c0,0.1-0.1,0.3-0.1,0.4c-0.1,0.1,0-0.1,0-0.1l-0.1,0.3
							c-0.2,0.1,0-0.2,0.1-0.4c-0.5,0-0.1,0.3-0.7,0.7l0.2-0.3c-0.3,0-0.4,0.3-0.7,0.5c0.1,0,0.7-0.4,0.5,0
							c-0.1,0.1-0.2,0.2-0.2,0.4c-0.1-0.1-0.2,0.1-0.3,0.3l-0.1-0.1c-0.1,0.2-0.1,0.3-0.1,0.4c-0.2,0.2-0.3,0.2-0.5,0.2
							c-0.3,0.3,0.4-0.1,0,0.3c-0.3,0.3-0.4,0.5-0.6,0.9c-0.2,0.2,0-0.1-0.1-0.1l-0.1,0.3c0,0-0.1,0-0.1,0c-0.1,0.2,0.1,0.1-0.1,0.4
							c0.1,0.2-0.6,0.3-0.7,0.8c-0.1,0,0-0.1-0.1-0.1c-0.2,0.5-0.2,0.4-0.4,0.9l-0.3,0.2c0.3-0.1,0.2,0.2,0.1,0.5
							c0.1,0,0.2-0.1,0.3-0.1l-0.2,0.4c-0.1,0-0.1,0-0.1-0.1c0,0,0,0.1,0,0.1c-0.2,0.1-0.2,0-0.2-0.2c0.1,0,0.1-0.1,0.2-0.1
							c0-0.2,0-0.3-0.1-0.4c0,0,0,0.1-0.1,0.2c0,0,0-0.1,0-0.1c0,0,0,0.1,0,0.2l-0.2,0l0,0.1l-0.5,0.4c-0.2,0.5-0.2,1-0.6,1.6
							c0-0.2-0.1-0.2-0.3-0.3c0.3-0.1,0.3-0.5,0.6-0.8c-0.1,0.1-0.2,0.1-0.2,0l-0.3,0.6c-0.1-0.1-0.2,0.1-0.3,0.2
							c0.3,0.1-0.2,0.5-0.3,0.8c-0.1,0-0.1-0.1,0.1-0.4c-0.4,0.2-0.1,0.6-0.4,0.7c0-0.1,0.1-0.1,0.1-0.1c-0.1,0.2-0.4,0.5-0.4,0.4
							l0.1-0.1c-0.4,0.4-1,1.3-0.9,1.5c0,0-0.2-0.2-0.2-0.3l-0.1,1.2c-0.1-0.2-0.6-0.2-0.4-0.6c-0.1,0.1-0.2,0.2-0.3,0.4
							c0.1-0.1,0.3,0,0.3,0.1c-0.4,0.1-0.2,0.1-0.6,0.3c0.1-0.1,0.2,0.2,0.1,0.4c0-0.1-0.2-0.2-0.2-0.2l-0.1,0.6
							c0-0.1-0.2-0.2-0.3-0.1c0.1,0-0.3,0.4-0.4,0.5l0.2-0.1c-0.4,0.4-0.1,0.7-0.4,1.2c0-0.1-0.2-0.4-0.4-0.1c0,0.2,0.2,0.9-0.1,1.4
							l-0.1,0l-0.2,0.4c0-0.3,0.1-1.2,0.2-1.6c-0.2,0.1-0.1,0-0.3,0.3c-0.1,0,0-0.2,0.1-0.3L37,41.6c0.2,0.1-0.2,0.6-0.1,0.6
							l0.4-0.8c0.2,0.1,0.1,0.7-0.3,1.1c-0.1,0.1-0.2-0.3-0.2-0.3c0,0.1-0.2,0.5-0.3,0.5l0.1-0.2c-0.2,0.2-0.1,0.5-0.5,0.7
							c-0.1,0.1-0.4,0.2-0.3,0.2c0.3,0,0.8,0.3,0.8,0.5c0,0-0.6,0.4-0.7,0.5c-0.2,0.1-0.1-0.5-0.3-0.4c0,0,0,0.2,0,0.2
							c-0.1,0.1-0.1-0.1-0.2,0.1c0.1,0.1-0.4,0.4,0,0.2c-0.1,0.3-0.2,0.2-0.4,0.5c0.2,0,0.1,0.5,0,0.7c0,0-0.1,0-0.1,0
							c-0.4,0.4-0.6,0.6-1,1.1c-0.1,0-0.3,0.2-0.3,0.1c0,0.1,0,0.2-0.1,0.3c-0.3,0.2,0.2-0.3-0.1-0.2c0.1,0.1-0.2,0.4-0.3,0.6
							c0.2,0,0.4-0.4,0.5-0.6c0.2,0.1,0.1,0.6-0.2,1.1C33,48.4,33,48.1,33,48.2c-0.6,0.6-0.2,0.8-0.7,1.2c-0.3,0.1-0.2-0.2-0.3-0.2
							c0.2-0.3,0.4-0.4,0.6-0.6l-0.2,0.2c0-0.1,0.2-0.3,0.3-0.4c-0.2,0.1-0.9,1.1-1.4,1.5c0,0.1-0.1,0.3,0,0.3l0.1-0.2
							c0.2-0.1-0.1,0.4,0.1,0.2c-0.1,0.3-0.2,0.6-0.5,0.8l-0.2,0c0,0,0.2-0.1,0.3-0.3c0,0.2-0.5,0.3-0.5,0.6l0.3-0.1
							c-0.1,0.3-0.2,0.6-0.5,0.9c0.2,0,0-0.1,0.3-0.2c-0.3,0,0.6-0.7,0.2-0.6c0.3-0.1,0.3-0.3,0.7-0.4c0,0-0.1,0,0.1-0.2
							c0,0,0-0.1,0-0.1c0,0,0,0,0,0c0,0,0,0,0,0c0,0,0,0,0,0c-0.1,0-0.1,0.1-0.2,0.1c0-0.2,0.3-0.5,0.3-0.7c0.1-0.1,0,0.1,0.1,0.1
							l0.1-0.2c0.1,0.1,0.4-0.2,0.2,0.1l0.2-0.3c0.2-0.1,0.4-0.3,0.5-0.5c0.1-0.1,0.2-0.4,0.1-0.2l0.3-0.5l0,0
							c0.4-0.4,0.6-1,1.1-1.4c0.1-0.2,0.2-0.3,0.4-0.6l0.1,0c0.1-0.2,0.5-0.5,0.5-0.7c0.4,0,0.8-0.9,1.1-1.2l-0.1-0.1
							c0.2-0.2,0.3-0.5,0.5-0.8l-0.1-0.1c0.1-0.3,0.6-0.6,0.9-1c0,0.1-0.1,0.1-0.2,0.2c0.6-0.3,0.6-1.1,1.1-1.4
							c0.1-0.1,0.1-0.2,0.2-0.3c0,0,0,0,0,0c0,0,0,0,0,0c0.1,0,0.1-0.1,0.2-0.1c-0.1,0-0.1,0.1-0.1,0.1c0.1-0.1,0.2-0.2,0.2-0.4
							l0.1,0c0,0,0,0,0,0c0.1-0.1,0-0.1-0.1-0.1c0-0.1,0.1-0.1,0.1-0.2c0.2,0,0.2-0.4,0.5-0.4c0-0.1,0.4-0.7,0.3-0.8
							c0,0,0.1,0,0,0.1c0.1-0.1,0.3-0.2,0.3-0.4l0.2,0l0.1-0.4c0.2-0.1,0.3-0.2,0.3,0.1c0.2-0.5,0.2-0.4,0.4-0.9l0.1,0.1
							c0.1-0.1,0.2-0.4,0.3-0.4c0.4-0.2,1.2-1.4,1.9-2.1c-0.3,0,0.4-0.3,0.2-0.4c0.1,0,0.2-0.1,0.2,0.1c0.3-0.4,0.5-0.5,0.6-0.9
							c0.1,0,0,0.1,0.1,0.1c0,0,0-0.2,0.1-0.2c0.1,0,0,0.1,0,0.2c0.3-0.4,0.2-0.6,0-0.7c0.2-0.1,0.3-0.2,0.3-0.5
							c0.1,0,0.3-0.1,0.1,0.2c0.1-0.1,0.7-0.8,0.6-0.9c0.1,0,0.2-0.2,0.2-0.2c0.3-0.3,0.3-0.3,0.5-0.6l-0.1,0.1
							c-0.1-0.2,0.2-0.3,0.3-0.5l0,0c0.6-0.5,0.1-0.3,0.7-0.7l-0.1,0c-0.2-0.2,0.5-0.4,0.7-0.8l-0.1,0.1c0.1-0.2,0.7-0.3,0.8-0.4
							c0,0,0,0.1,0,0.1c0.5-0.4-0.1-0.2,0.2-0.5c0.1,0,0.1,0.2,0.3,0c0.1-0.1,0.3-0.8,0.7-1c-0.1,0-0.2,0.1-0.1-0.1
							c0.2-0.3,0.7-0.5,0.7-0.8c0,0,0.1,0,0.1,0c0.1-0.2,0.4-0.7,0.4-0.8c0.5,0.1,0.8-1.3,1.1-1l0.4-0.6l0,0
							c0.3-0.3,0.3-0.5,0.4-0.7c0.1-0.1,0.1,0,0.1,0c0.5-0.5,0.5-0.5,0.7-1.1l0.1,0c0-0.2,0.8-0.6,1.1-1.3c0,0,0,0,0,0.1
							c0.4-0.7,1.4-1.2,1.2-1.7l0.2-0.5c-0.4,0.5-0.1-0.2-0.3,0c0.1-0.2,0.5-0.4,0.3-0.2l0,0c0.1,0.2,0.6-0.6,0.7-0.5
							c0.8-1,1.6-1.9,2.4-2.8l-0.2,0l0.3-0.3c0.1-0.1,0.2,0,0,0.2c0.2-0.1,0.2-0.4,0.2-0.5c0.4-0.4,0,0.3,0.1,0.2l0.1-0.2l-0.1,0
							c0.1-0.2,0-0.3,0.2-0.5c0.2-0.2,0.2,0,0.2-0.1c0,0,0,0,0.1-0.1l0.3-0.4l-0.2,0.1c0.1-0.2,0.3-0.4,0-0.3
							c0.4-0.1,1.3-1.5,1.5-1.6c0.1-0.3,0.3-0.6,0.6-0.9c-0.1,0.1-0.2,0,0-0.3c0.2,0.3,0.5-0.4,0.9-0.5c-0.3,0.1,0.6-0.8,0.2-0.6
							c0.2-0.2,0.1,0.1,0.3-0.1c0.3-0.6,1-1.1,1.5-1.8c0,0-0.2,0-0.1-0.2l0.4-0.2c0.1-0.1-0.1-0.3,0.2-0.4c-0.1,0-0.1,0-0.1-0.1
							c1.2-1.1,1.9-2.7,3.3-3.8c-0.2,0.1-0.1,0,0-0.1c-0.1,0.1-0.1-0.1-0.1-0.1l0.6-0.4c-0.1-0.2,0.5-0.6,0.4-0.7l-0.1,0.2
							c0-0.3-0.6,0.1-0.7-0.1c0,0.4-0.8,0.5-0.9,1.1c-0.1,0.1,0-0.1-0.1-0.1c0,0.2-0.1,0.3-0.3,0.5l0,0C67,4.7,66.7,5,66.1,5.7
							l0.1,0c-0.1,0.2-0.2,0.2-0.3,0.2c0,0.3,0.4-0.4,0.4-0.2c-0.4,0.1-0.9,1.1-1.2,1.1c-0.2,0.2,0.2,0,0,0.3l-0.1,0l0,0.1
							c-0.1,0.2-0.3,0.2-0.3,0.1c0,0,0.1-0.1,0.1-0.2c-0.2,0.2-0.5,0.6-0.5,0.7l0.2-0.2c-0.5,0.7-1.2,1.5-1.6,2.2l0.1,0
							c-0.3,0.6-0.4,0.4-0.8,0.9l0,0c0,0.1-0.1,0.3-0.3,0.5c0.1-0.2-0.3,0.2-0.2,0c-0.3,0.6-0.1,0.3-0.3,0.8l-0.1,0
							c0,0.2,0,0.2-0.2,0.5c0.1-0.3-0.3,0.1-0.1-0.2c-0.6,0.4-0.5,1-1,1.1c0,0.4,0.5-0.4,0.4-0.2c0.2-0.1,0,0.3-0.2,0.5
							c-0.2,0.2-0.5,0.1-0.9,0.6c0,0,0-0.1,0.1-0.1c-0.2,0.1-0.2,0.4-0.5,0.5c0,0.2-0.2,0.3-0.1,0.4l0.3-0.5c-0.2,0.3-0.2,0.6-0.6,1
							c0-0.1,0-0.2,0.1-0.3c-0.1,0.1-0.1,0.2-0.3,0.3c-0.1-0.2,0.4-0.5,0.5-0.9c-0.2,0.1-0.3,0.6-0.3,0.3c0.1,0.4-0.4,0.4-0.5,0.9
							l-0.1-0.1c0,0.1-0.1,0.2-0.1,0.3l0-0.3c-0.1,0.3-0.5,0.4-0.6,0.7c0.4-0.5,0.2,0,0.4-0.2c-0.4,0.7-0.5,0.2-1,0.9
							c0.1-0.1,0.3-0.3,0.3-0.1c-0.1,0.1-0.3,0.3-0.4,0.3c-0.4,0.5,0.2,0,0.1,0.2c-0.2,0.1-0.1,0.3-0.3,0.5l-0.1-0.1
							c-0.5,0.5,0.1,0.3-0.4,0.7l0-0.3l-0.2,0.3l-0.1-0.1c-0.1,0.3-0.2,0.4-0.5,0.6c0.1,0,0.1,0.2,0,0.4c-0.2,0.1,0-0.2-0.3,0.2
							c0-0.1,0-0.3,0.2-0.3c0,0,0-0.1,0-0.2c-0.2,0.1-0.4,0.4-0.5,0.5c0,0,0.1-0.1,0.1-0.1l-0.3,0.6c-0.1,0-0.1,0-0.1-0.1
							c-0.1,0.1-0.1,0.2-0.2,0.4c0-0.1-0.1-0.2,0-0.4l-0.3,0.5c-0.1,0-0.3,0.2-0.3,0.1c-0.2,0.2-0.4,0.7-0.7,1c0,0,0,0.1-0.1,0.2
							c-0.3,0.3-0.6,0.5-0.8,1l-0.3,0.1c-0.2,0.3,0.4-0.2,0.1,0.4c-0.2,0.4-0.2,0-0.4,0.1c-0.1,0.2-0.2,0.6-0.5,0.9
							C50.9,24.4,51,24.3,51.1,24.2z M48.2,27.9c0-0.1,0.1-0.3,0.2-0.3C48.5,27.8,48.4,27.8,48.2,27.9z M44.1,33.6
							c0-0.1,0.1-0.1,0.2-0.2C44.2,33.5,44.1,33.6,44.1,33.6z M32.4,49.5C32.4,49.5,32.4,49.5,32.4,49.5
							C32.6,49.4,32.5,49.4,32.4,49.5z M32.1,49.8C32.1,49.9,32.1,49.9,32.1,49.8c0,0,0.1-0.1,0.2-0.1
							C32.2,49.7,32.2,49.7,32.1,49.8z M60.1,14.8L60.1,14.8C60.1,14.7,60.1,14.7,60.1,14.8z"/>
						<path d="M44.4,32.9C44.5,32.9,44.5,32.9,44.4,32.9C44.5,32.9,44.5,32.8,44.4,32.9z"/>
						<path d="M52.9,21.9C52.9,21.9,52.9,21.9,52.9,21.9C52.9,21.9,52.9,21.9,52.9,21.9L52.9,21.9z"/>
						<path d="M35.3,44.1c0.1-0.1,0.1-0.1,0.2-0.1C35.5,44,35.4,44,35.3,44.1z"/>
						<path d="M30.9,51.7l0.1-0.2C30.9,51.5,30.9,51.6,30.9,51.7C30.9,51.6,30.9,51.6,30.9,51.7z"/>
						<path d="M28.8,53c0,0-0.1,0.1-0.1,0.1l0.1,0C28.9,53,29,52.9,28.8,53z"/>
						<path d="M30.4,51.6c-0.1,0-0.2,0.1-0.3,0.3c0,0,0,0,0,0C30.2,52,30.3,51.8,30.4,51.6z"/>
						<path d="M30.1,51.9c0,0-0.1,0.1-0.1,0.1C30,52.1,30.1,52,30.1,51.9z"/>
						<path d="M31.8,50.3c-0.1,0.1,0.1,0.1,0,0.1C31.9,50.6,32.1,49.8,31.8,50.3z"/>
						<polygon points="30,51.5 30.2,51.5 30.2,51.4 						"/>
						<path d="M31,50.4l-0.2,0.2c0,0,0,0,0,0.1C30.9,50.6,31.1,50.4,31,50.4z"/>
						<path d="M30.8,50.7c-0.1,0.1-0.1,0.1-0.1,0.2C30.7,50.9,30.8,50.8,30.8,50.7z"/>
						<polygon points="30.3,51.2 30.4,51.1 30.5,51 						"/>
						<path d="M33.1,47.9l0.2-0.3c0-0.1-0.1,0-0.2,0.1C33.1,47.8,33,47.9,33.1,47.9z"/>
						<path d="M32.2,48.5c0.1-0.1,0.1,0,0.2-0.1l-0.1-0.1L32.2,48.5z"/>
						<path d="M32.8,47.7c0-0.1,0.2-0.4-0.1-0.1C32.7,47.7,32.5,47.9,32.8,47.7z"/>
						<polygon points="36,44 35.9,44.1 36.1,44.2 						"/>
						<path d="M38.2,40.2c-0.3,0.3,0.1,0.2-0.2,0.4c0,0.1,0.2-0.2,0.2-0.1C38.3,40.3,38.4,40.3,38.2,40.2z"/>
						<path d="M38.2,40.5c0,0,0,0.1,0,0.1C38.2,40.6,38.2,40.6,38.2,40.5z"/>
						<polygon points="69.7,3 69.9,2.8 69.7,2.9 						"/>
						<path d="M69.8,2.5L70,2.6l0-0.2C69.9,2.4,69.9,2.5,69.8,2.5z"/>
						<path d="M47.6,28.3L47.6,28.3c0.1,0,0.1,0,0.2-0.1L47.6,28.3z"/>
						<polygon points="49.8,25.7 49.7,25.7 49.9,25.7 						"/>
						<path d="M51.4,23.4c-0.1,0.1-0.1,0.2-0.2,0.3C51.3,23.5,51.6,23.5,51.4,23.4z"/>
					</g>
				</g>
			</g>
		</g>
	</g>
	<g>
		<path d="M19.5,39.8v0.4H5.2V12.9h0.4v26.8H19.5z"/>
		<path d="M35.9,21.1v19.1h-0.1c-0.2,0-0.3-0.1-0.3-0.3l-0.1-3.7c-0.5,0.6-1,1.2-1.5,1.8c-0.5,0.5-1.1,1-1.8,1.4
			c-0.6,0.4-1.3,0.7-2,0.9c-0.7,0.2-1.4,0.3-2.2,0.3c-2.1,0-3.7-0.6-4.7-1.9c-1-1.3-1.6-3-1.6-5.3V21.1h0.5v12.2
			c0,1.1,0.1,2,0.3,2.8c0.2,0.8,0.6,1.5,1.1,2.1c0.5,0.6,1.1,1,1.8,1.3c0.7,0.3,1.6,0.5,2.6,0.5c1.5,0,2.9-0.4,4.1-1.2
			c1.3-0.8,2.4-1.9,3.3-3.3V21.1H35.9z"/>
		<path d="M66.6,20.8c1.3,0,2.5,0.2,3.6,0.7c1,0.5,1.9,1.1,2.6,2c0.7,0.9,1.2,1.9,1.6,3.1c0.4,1.2,0.5,2.6,0.5,4
			c0,1.5-0.2,2.8-0.5,4c-0.4,1.2-0.9,2.2-1.6,3.1c-0.7,0.9-1.6,1.5-2.6,2c-1,0.5-2.2,0.7-3.6,0.7c-1.3,0-2.5-0.2-3.6-0.7
			c-1-0.5-1.9-1.1-2.6-2c-0.7-0.9-1.2-1.9-1.6-3.1c-0.4-1.2-0.5-2.5-0.5-4c0-1.5,0.2-2.8,0.5-4c0.4-1.2,0.9-2.2,1.6-3.1
			c0.7-0.9,1.6-1.5,2.6-2C64.1,21,65.3,20.8,66.6,20.8z M66.6,40c1.3,0,2.4-0.2,3.4-0.7c1-0.5,1.8-1.1,2.5-1.9
			c0.7-0.8,1.1-1.8,1.5-3c0.3-1.2,0.5-2.4,0.5-3.8c0-1.4-0.2-2.7-0.5-3.8c-0.3-1.2-0.8-2.2-1.5-3c-0.7-0.8-1.5-1.5-2.5-1.9
			c-1-0.5-2.1-0.7-3.4-0.7c-1.3,0-2.5,0.2-3.4,0.7c-1,0.5-1.8,1.1-2.4,1.9c-0.7,0.8-1.1,1.8-1.5,3c-0.3,1.2-0.5,2.4-0.5,3.8
			c0,1.4,0.2,2.7,0.5,3.8c0.3,1.2,0.8,2.1,1.5,3c0.7,0.8,1.5,1.5,2.4,1.9C64.2,39.8,65.3,40,66.6,40z"/>
		<path d="M94.9,21.1l-8.3,19.1h-0.4L78,21.1h0.3c0.1,0,0.2,0,0.2,0.1c0.1,0.1,0.1,0.1,0.1,0.2l7.6,17.5c0.1,0.1,0.1,0.2,0.2,0.4
			c0,0.1,0.1,0.2,0.1,0.4c0-0.1,0.1-0.2,0.1-0.4c0-0.1,0.1-0.2,0.2-0.4l7.6-17.5c0.1-0.2,0.2-0.3,0.4-0.3H94.9z"/>
		<path d="M106.3,20.8c1.3,0,2.5,0.2,3.6,0.7c1,0.5,1.9,1.1,2.6,2c0.7,0.9,1.2,1.9,1.6,3.1c0.4,1.2,0.5,2.6,0.5,4
			c0,1.5-0.2,2.8-0.5,4c-0.4,1.2-0.9,2.2-1.6,3.1c-0.7,0.9-1.6,1.5-2.6,2c-1,0.5-2.2,0.7-3.6,0.7c-1.3,0-2.5-0.2-3.6-0.7
			c-1-0.5-1.9-1.1-2.6-2c-0.7-0.9-1.2-1.9-1.6-3.1c-0.4-1.2-0.5-2.5-0.5-4c0-1.5,0.2-2.8,0.5-4c0.4-1.2,0.9-2.2,1.6-3.1
			c0.7-0.9,1.6-1.5,2.6-2C103.7,21,104.9,20.8,106.3,20.8z M106.3,40c1.3,0,2.4-0.2,3.4-0.7c1-0.5,1.8-1.1,2.5-1.9
			c0.7-0.8,1.1-1.8,1.5-3c0.3-1.2,0.5-2.4,0.5-3.8c0-1.4-0.2-2.7-0.5-3.8c-0.3-1.2-0.8-2.2-1.5-3c-0.7-0.8-1.5-1.5-2.5-1.9
			c-1-0.5-2.1-0.7-3.4-0.7c-1.3,0-2.5,0.2-3.4,0.7c-1,0.5-1.8,1.1-2.4,1.9c-0.7,0.8-1.1,1.8-1.5,3c-0.3,1.2-0.5,2.4-0.5,3.8
			c0,1.4,0.2,2.7,0.5,3.8c0.3,1.2,0.8,2.1,1.5,3c0.7,0.8,1.5,1.5,2.4,1.9C103.8,39.8,105,40,106.3,40z"/>
		<polygon points="39.7,21.1 40.3,21.2 54.3,40.1 53.6,40 		"/>
	</g>
	<text transform="matrix(1.1159 0 0 1 56.0825 49.0574)" class="st0 st1">Luxovo Studios</text>
	<rect x="56.1" y="42.4" width="58.6" height="0.7"/>
</g>
</svg>
