<?xml version="1.0" encoding="utf-8"?>
<!-- Generator: Adobe Illustrator 21.1.0, SVG Export Plug-In . SVG Version: 6.00 Build 0)  -->
<svg version="1.1" id="Layer_1" xmlns="http://www.w3.org/2000/svg" xmlns:xlink="http://www.w3.org/1999/xlink" x="0px" y="0px"
	 viewBox="0 0 1137.2 625.5" style="enable-background:new 0 0 1137.2 625.5;" xml:space="preserve">
<style type="text/css">
	.st0{font-family:'Aileron-Thin';}
	.st1{font-size:64.1941px;}
</style>
<g>
	<g>
		<g>
			<g>
				<g>
					<g>
						<path d="M212.8,602c-0.8,0.7,0.8,1.5,0.9,1.8C214.6,602.1,212.5,601.7,212.8,602z"/>
						<polygon points="220.9,585.8 221.2,586.5 221.6,583.4 						"/>
						<path d="M231.3,572.9c-3.2-0.6-3.4,5-6,6.6l-0.8,0l1,2.5C227.3,579,229.1,574.4,231.3,572.9z"/>
						<path d="M241.6,569.9c-1.2-0.3,0.4-2.1-1.6,1.4c0.2-0.1,0.3-0.1,0.5-0.1C240.7,570.9,241,570.5,241.6,569.9z"/>
						<path d="M240.5,571.2C239.5,572.6,241.9,570.9,240.5,571.2L240.5,571.2z"/>
						<path d="M245,564.5l-0.7,2.4c0.8,0,2.2-1.5,2.1-0.6C247.5,564.2,246.7,564.1,245,564.5z"/>
						<path d="M244.7,561.5l-0.4,1.2C244.7,562.7,244.9,562.5,244.7,561.5z"/>
						<path d="M243.4,565.2l0.9-2.5c-0.6,0-1.3-0.6-0.5,1.1C243.3,563.1,243.6,564,243.4,565.2z"/>
						<path d="M242.2,566.1c-1.3,0.6-2.6,1.7-2-0.7C237.8,569,239.8,569.7,242.2,566.1z"/>
						<path d="M229.5,570.4l-1.7,0.8l-0.2,1.8C227.7,572.1,230.2,570.9,229.5,570.4z"/>
						<path d="M255.1,554.3c-0.4-0.5-1.7-0.4-2.5-0.8l-0.5,1.8C253,554.9,254.3,553.8,255.1,554.3z"/>
						<path d="M252.6,553.5l0.8-2.6C251.9,552.6,252,553.2,252.6,553.5z"/>
						<polygon points="242.5,559.2 241.6,563.8 243,558.6 						"/>
						<polygon points="261.2,546.8 261.4,548.8 261.3,545.5 						"/>
						<path d="M265,541.6c0.2,1.6,2.4,0.1,2.3,1.4c0.9-1.5,1.1-3.3,1.2-4.9C268,539.6,267,540.7,265,541.6z"/>
						<path d="M268.9,535.6c-0.2,0.7-0.3,1.6-0.4,2.6C268.8,537.4,269,536.6,268.9,535.6z"/>
						<path d="M256.3,547.7c0.4,0.1,1.4,0.4,2.6-0.5l-2-0.3C256.8,547.2,256.6,547.4,256.3,547.7z"/>
						<path d="M256.9,546.9L256.9,546.9c0.8-0.8,1.3-1.4,1.5-1.6C258.2,545.5,257.8,546,256.9,546.9z"/>
						<path d="M256.2,547.9c0.1-0.1,0.1-0.1,0.2-0.2C256.1,547.7,256.1,547.7,256.2,547.9z"/>
						<path d="M247.9,555c0.2-1.8,1.3-4.8-1.7-3.4C246.4,553.2,248.2,552.3,247.9,555z"/>
						<path d="M253.7,547.5l-2,1.9c0.4,0.2,1.2,0.3,1.1,1.1L253.7,547.5z"/>
						<polygon points="254.1,546.2 253.7,547.5 254.5,546.8 						"/>
						<path d="M264.8,538.2c0.1-1.4,0.9-2.4,1.7-3.6c-1.2,1-2.4,2.1-3.3,3.3C263.5,538.4,263.8,539.5,264.8,538.2z"/>
						<path d="M260.8,542.3c0-0.1,0.1-0.2,0.1-0.3C260.7,542.1,260.6,542.2,260.8,542.3z"/>
						<path d="M275.3,523.5c-0.1,0-0.3,0-0.4,0c0.1,0.1,0.1,0.1,0.2,0.2L275.3,523.5z"/>
						<path d="M262.8,537.9c-1,0.7-1.1,1.5-1.1,2.3c0.4-0.8,0.9-1.6,1.5-2.3C263,537.7,262.9,537.5,262.8,537.9z"/>
						<path d="M270.8,532c-0.7,0.2-1.3,0.6-2,1C269.6,532.9,271,532.4,270.8,532z"/>
						<path d="M261.5,542.1c0,0.1,0,0.1,0,0.2C262,542.2,261.8,542.1,261.5,542.1z"/>
						<path d="M261.5,542.1c0.2-0.6,0.1-1.2,0.1-1.8c-0.3,0.6-0.6,1.3-0.8,1.9C261.1,542,261.3,542,261.5,542.1z"/>
						<path d="M269.4,513.3c1.1,1.1,0.4,4.4-2.6,5.4c-0.7,2.8,4.4,4.7,8.1,4.8c-0.5-0.5-1-0.9-0.1-3.6c-1.3,0.2-5.3,3.3-5,0.7
							c1.6-3.3,2.2-1.9,4-2.7c-2.5-0.1,0.6-5.3-2.2-6.5l-1.1,3C270.2,514.3,270.3,512.9,269.4,513.3z"/>
						<path d="M271.6,527.4l-0.5,1c1-0.8,2-1.1,4-1.6c0.5-1.9,0.3-2.6,0-3l-3.5,4.1L271.6,527.4z"/>
						<path d="M268.1,532.2c-0.8-1.7,0.3-4.3-2.2-4.2c-1.9,2.6-0.3,2.7-0.9,4.6c2.9-4.3-0.2,1.8,2.9-0.5c-0.4,1-0.9,1.7-1.4,2.5
							c0.7-0.6,1.5-1.1,2.3-1.6c-0.1,0-0.1,0-0.2,0l0,0c0,0,0,0,0,0c-0.3,0-0.5,0-0.2-0.1c0,0,0-0.1,0-0.1
							C268.3,532.6,268.2,532.4,268.1,532.2c1.2-0.9,0.5,0.1,0.4,0.6c0.1,0.1,0.1,0.1,0.2,0.2c0,0,0,0,0,0l2.5-4.6
							C270.2,529.1,269.4,530.2,268.1,532.2z"/>
						<path d="M245,547.1c0.2,0,0.3,0.1,0.4,0.1C245.5,546.9,245.5,546.7,245,547.1z"/>
						<path d="M247.2,546.1c0,0.4,0.3,1.1-0.6,2c-1.1,0.5-0.6-0.5-1.1-0.8c-0.1,0.9-0.7,2.8,1.5,1.5l0-0.4c1.8-1.3,5.1-2,5.1-1.6
							C250.4,546.2,249.2,546,247.2,546.1z"/>
						<path d="M257.4,538.8l2-3.9l-2.5,0.8l0.8,0.5C255.8,537.8,257,538.1,257.4,538.8z"/>
						<polygon points="276.3,523.7 277.4,525.3 276.9,521.7 						"/>
						<polygon points="279.6,519.2 280.8,520.3 280.9,518.6 						"/>
						<path d="M462.4,259.5l0.4-1.3C462.6,258.8,462.5,259.2,462.4,259.5z"/>
						<path d="M456.6,266.6l0.5,0.7C457,266.7,456.8,266.4,456.6,266.6z"/>
						<path d="M365.7,411.4c2.3-0.5,5.4-0.7,3.9-1.6l-1.7-0.6C367.3,410.3,366.5,411,365.7,411.4z"/>
						<path d="M416.7,331.2c-0.2,0-0.5,0.1-0.7,0.1c0.2,0.7,0.3,1.4,0.5,2C416.5,332.7,416.6,331.9,416.7,331.2z"/>
						<path d="M411.9,325.7l2.4-1.2C413.6,324.7,412.9,325,411.9,325.7z"/>
						<path d="M492.4,219.2l-0.5-2.3C490.5,218.7,491.8,218.5,492.4,219.2z"/>
						<path d="M315.1,473.9c1.5-0.8,2.5-1.6,3.3-2.5C316.4,472.3,314.3,472.6,315.1,473.9z"/>
						<path d="M474.5,273.9c0.2-0.8,0.2-1.3-0.1-1.5C474.1,273.2,474.1,273.7,474.5,273.9z"/>
						<path d="M321.3,467.8c-0.3,0.1-0.6,0.3-0.8,0.4c-0.5,1.1-1.1,2.2-2,3.2C319.9,470.8,321.2,469.8,321.3,467.8z"/>
						<path d="M607.3,77.9c0.1-0.1,0.3-0.2,0.4-0.2C607.6,77.6,607.4,77.7,607.3,77.9z"/>
						<path d="M654.1,47.5c-0.2,0.5-0.8,1.1-1.3,1.8C653.2,49,653.6,48.5,654.1,47.5z"/>
						<path d="M294.4,502C293.7,503,294.4,502.3,294.4,502L294.4,502z"/>
						<path d="M285.4,502.2c0-0.3-0.1-0.6-0.4-0.9C285.3,501.7,285.4,502,285.4,502.2z"/>
						<path d="M320.3,451.8C320.3,451.8,320.3,451.8,320.3,451.8C319.9,451.8,319.9,451.8,320.3,451.8z"/>
						<path d="M292.6,502.9c0.4-0.2,0.9-0.5,1.4-0.9C293.7,502.2,293.3,502.4,292.6,502.9z"/>
						<path d="M293.4,503.2c-0.3,0.3-0.6,0.5-0.8,0.7C292.8,504.2,293,504.3,293.4,503.2z"/>
						<path d="M295.3,500.7c-0.4,0.5-0.9,1-1.3,1.4c0.2-0.1,0.4-0.1,0.4,0C294.6,501.7,294.8,501.3,295.3,500.7z"/>
						<path d="M549.9,157c0.1,0,0.2-0.1,0.3-0.1C550.4,155.5,550.2,156,549.9,157z"/>
						<path d="M371,375.9c0,0.1,0,0.1,0,0.2c0,0,0.1-0.1,0.2-0.1L371,375.9z"/>
						<path d="M372.7,371.8c0.5,2.8-0.3,3.4-1.5,4.2l4.8,2L372.7,371.8z"/>
						<path d="M475.8,242l-3.1,1.4c0.3-4.4,2.6-5.9-0.9-5.1c4,3.7-6.9,9.5-2.9,13.2l-2.1,0.8c0.4-0.4,0.2-0.7,0.6-1.1
							c-4.4,1.4,1.3,4.7-2.4,8.1c-1.4,1.1-2.8,1.5-2.5,0.2l-1.4,3.8c-0.8,0.8-1.3,0-0.6-0.8l-3.3,4.9l-0.1-0.1
							c0.1,1.2,0,3.5-0.2,4.6c-1.5,0.7,0-0.9-0.7-1.1l-1,3.4c-1.9,0.2-1.3-2.8,0.3-4.4c-6.1-1-0.6,3-7.2,6.1l1.4-2.8
							c-3.6-0.4-4.3,2.2-7.9,3.7c1.3,0,8.1-2.4,7,1.2c-0.9,0.5-1.9,1.4-2.3,3.6c-1.5-1.2-2.3,0.6-3.7,2.4l-1.9-1.7
							c-1,2.4,0.1,3.1,0.1,5c-2,2-3.9,1.2-5.6,0.7c-3.1,3.3,4.4-0.4,1.5,4c-3.1,2.3-3.9,5-5.5,9.5c-2.3,1.5-0.9-1.3-2.1-1.1l0.1,3.1
							c-0.4,0.4-0.8-0.1-1-0.4c-0.6,2,1.9,1.7,0.5,4.6c1.7,2.4-7.2,2.3-7,7.3c-1.2,0.3-0.9-1.3-1.9-1.7c-1.6,5.4-1.6,4.4-2.1,9.6
							l-3.6,1.8c3.2-0.9,2.8,3.2,2.4,6.7c1.3-0.2,2.5-0.3,3.1-0.5l-1.9,4.6c-0.7,0.2-1.1-0.7-1.4-2c0,0.4-0.1,0.8-0.1,1.1
							c-1.8,0.7-2.4-0.9-2.8-2.7c0.8-0.1,1.5-0.3,2.3-0.4c-0.5-1.9-1.1-3.8-2.4-4.6c0,0.4-0.1,1.1-0.4,1.7c-0.1-0.5-0.3-0.9-0.6-0.9
							c-0.3,0-0.2,0.7-0.2,1.7l-2.9-0.9l0.7,0.9l-5.3,3.8c-0.6,5.3,0.3,11-3.2,17.3c-0.5-2.7-2.4-2.4-4.3-4.1c3.3,0.1,2.6-5,5.3-7.5
							c-1.4,1.3-2.1,0.3-2.1-0.4l-2.2,6.6c-1.5-1.4-2.1,0.1-3.8,1c3.9,1.5-1,5.5-1.7,8.3c-1.2-0.7-1.8-2.1,0.5-4.4
							c-4.6,0.9,0.8,6.6-3.4,7.7c0.5-0.6,0.9-0.8,0.6-1.5c-0.2,2.2-3.8,5.2-4.1,3.6l0.5-0.6c-3.7,3.8-10.1,12.6-7.9,15.3
							c-0.4-0.2-2.8-3.1-3.1-3.8l3,14.5c-1.8-2.5-9.2-4.3-7.7-8.8c-1.1,0.7-2.5,1.6-3.3,4.4c0.9-0.4,4.6,1,4.1,2.1
							c-4.6,0.5-2.8,0.7-7.4,2c1.3-0.6,4,3.4,2.6,4.9c-0.3-0.7-3.6-2.7-3.5-3.6l0.3,6.8c0.2-1.5-2.8-2.6-4.5-2.5
							c1,0.1-2.8,3.4-3.3,4.7l2.2-1c-4.1,4,1.4,8.4-2.3,12.6c-0.3-1.1-3.4-4.9-5.6-3c1,2.5,5,11.5,3.2,16.5l-1.6-0.1l-1.2,3.9
							c-1.2-4-2.7-13.9-2.6-18.5c-2.2,1-1.6-0.5-3.5,2.1c-1.7,0.1-0.4-2.5,0.2-3.3l-5.3,5.3c2.3,1.4-1.5,6.1,0.5,7.3l2.9-8.1
							c2.3,1.4,3,8.4-0.6,12.3c-1.7,0.4-3.1-3.8-3.9-4.3c0.3,1.1-1.8,5-2.6,5l0.3-2.6c-2.6,1.7-0.2,6-4.4,7.1
							c-0.9,0.8-5,0.7-3.9,1.8c3.6,0.4,11.3,6,12.3,8.5c-0.4,0.2-6.3,3.2-8.4,3.3c-3.1,0.1-2.6-5.9-5.3-5.9c0.5,0.5,0.5,1.9,0.5,2.5
							c-1.3,0.6-1.4-1.8-2.9,0.5c1.8,2.1-3.7,4.3,1,2.5c-1.1,2.6-2.2,1.9-4.2,4.5c2,0.3,2.9,6,1.8,8.6c-0.4-0.6-1.5-0.6-2-0.7
							c-3.7,4.2-6.5,5.8-9.8,9.8c-0.8,0-3,1.4-3.3-0.1c-0.1,0.9,0.2,2-0.8,3.3c-3.8,1,2-3-1.7-2.9c1.1,1.1-0.9,4.6-1.5,7
							c2.4,1,3.7-3.8,4.3-6.2c2.6,2.1,2.9,7.4,0.7,12.7c-2.1,3.9-2.9,0.1-3,1c-5.5,6,0.3,9.1-5.8,12.8c-3.4,0.7-3.4-2.6-5-3.1
							c1.6-3.3,4.4-3.4,5.9-5.3l-2.6,1.7c0.1-1.3,1.2-3.5,2.5-4.1c-2.9,0.5-8.9,10.5-14.2,14.3c-0.1,1.3-0.8,3.3,0.5,3.1l1-1.7
							c2.5-0.3-0.5,4.4,1.7,3c-0.7,2.8-1.1,6.4-4.2,8.7l-2.4-1c0.6,0.4,2.7-1,2.7-2.3c-0.1,1.9-6.2,2.4-4.7,5.8l3-1
							c-0.7,2.9-0.7,7.1-3.4,9.2c2.8,0.3,0.3-0.8,3.9-0.8c-4-0.6,5.4-6.5,0.5-6.3c4.1,0.2,3.7-2.4,7.9-3.1c-0.7-0.4-1.9-0.1,0.1-2
							c-0.1-0.2-0.2-0.7-0.2-0.9c0.1-0.1,0.1-0.1,0.2-0.1c-0.1,0-0.1,0-0.2,0.1c0-0.2,0-0.2-0.1,0c-0.7,0.3-1.4,0.5-1.8,0.3
							c-0.6-2.2,2.2-5.7,2.4-7.4c1.3-1.1,0.3,1.1,1.5,1l0.3-2.6c1.5,1,5.1-1.6,3.5,2.1l2.3-2.7c2.1-1,4.2-2.9,4.7-4.8
							c1.3-1,1.1-4.5,1.3-2.5l2.6-5l0.4,0.2c3.6-4.1,4.7-10.6,11.1-13.4c0.8-1.7,1.5-3.5,3.8-5.6l1.6,0.5c1-2.2,5.6-4.5,5-6.3
							c4.8,0.6,7.8-8.3,11-11.1l-1.5-1.4c1.9-2.1,3.1-4.6,4.7-7.9l-1.5-1c0.8-3.3,5.9-5.3,8.7-9.2c0.3,0.7-0.6,1.5-1.4,1.9
							c6.8-2,5.3-11.3,10.8-13.5c0.3-1.4,1.1-2,2-2.4c-0.1,0.1-0.1,0.2-0.1,0.3c0.1-0.1,0.2-0.2,0.4-0.4c0.6-0.3,1.2-0.5,1.9-0.8
							c-0.7,0.2-1.3,0.3-1.7,0.6c0.6-0.8,1.4-2.1,2-3.6l1.9,0.7c0.1-0.1,0.1-0.2,0.2-0.3c1.5-0.7,0-1.5-1.6-1.8
							c0.2-0.8,0.4-1.6,0.3-2.3c3.2,1,1.6-3.7,5.2-2.9c-0.6-1.8,3.7-6.6,1.6-9.3c0.4,0.2,0.8,0,0.3,0.7c1.3-1.1,2.7-2.1,2.9-3.9
							l2.4,1l-0.3-4.9c2.5-0.8,3.8-1,3.9,1.9c1-5.9,1.8-4,2.4-9.3l1.1,1.2c1-1.3,0.9-4.6,2.5-4.6c4.6-0.9,11.4-13.6,19.4-19
							c-4.8-1.5,4.3-2,1.7-4.6c1.2,0.3,2.5-0.3,2.3,1.4c2.1-4.3,5.8-4.4,5.4-8.9c1.2,0.3,0.6,1.8,1.4,1.8c0-0.4,0.2-1.8,1-1.7
							c0.8,0,0.3,1.1,0.2,2c2.9-3.9,0.5-6.4-1.8-8.6c2.7-1,3.3-2,2.8-4.7c1.3,0,3.1-0.4,1.5,2.1c1.2-1.2,7.6-7,5.7-8.8
							c0.8,0,1.6-1.7,1.7-2.2c2.5-2.8,2.9-3,5-6l-1,0.5c-1.5-3.1,1.4-2.8,3-5.4l0.2,0.3c6-3.9,1-3,7.2-6.6l-1.7-0.9
							c-2.8-3.1,5.6-3.1,6.8-7.2l-1.7,0.4c0.2-2.6,8.1-1.2,9.9-2.5c0.6-0.1,0,0.9-0.2,1.6c5.4-2.9-1.5-2.1,0.7-5.8
							c1.5,0.2,2.1,2.9,4,0.9c1.7-0.4,1.7-9.1,6.1-10.5c-1.3,0-2.7,0-2.1-2c1.6-2.6,8.1-3.8,7.2-8c0.5-0.1,0.8-0.1,1,0.1
							c0.8-2.3,3.5-6.7,3-8.9c6.5,2.5,6.3-13.1,11.1-9.2l4.1-5.7l0.4,0.5c3.1-3.2,3-5.4,2.8-7.5c1-0.5,0.9,0.4,1.1,0.7
							c5.1-4.3,5.3-5,6.3-11.2l1.9,0.8c0-1.9,8.3-5.4,10.6-11.9c0.1,0.2,0.4,0.5,0.3,1.1c2.7-7.1,15.1-10.1,11.1-16.6l1.6-4.8
							c-4.3,4.5-1.9-2.7-4.4-1.4c1.2-2.2,5.6-3.5,4-1l-0.6,0.1c2.3,3.2,5.8-5.2,7.7-3.4c7.4-9.6,16.5-17.5,23.7-26.3l-3.1-0.8l2.6-3
							c1.2-0.4,2.7,0.3,0.8,2.5c2.2-0.1,1.9-4.6,1.4-5c4.4-3.6,1.3,3.8,2.4,2.5l1.3-1.9L564,162c0.2-2.2-0.6-3.1,1.6-5.7
							c1.8-1.3,2.1,0.3,2.7-0.3c0.2,0.1,0.4,0,0.9-1l3.3-3.7l-3.1,0.1c0.5-2.4,3-3.6-0.5-3.4c5.3-0.1,12.8-13.6,15.1-14.5
							c0.6-3.5,2.6-5.8,5.1-8.7c-1,0.4-3.3-0.7-1.1-3.1c3.4,4.3,5.6-3.2,10.2-2.9c-3.5,0.2,5.3-7.7,0.2-7c2-1.9,1.7,1.1,3.9,0.3
							c2.4-6.4,10-10.3,14.5-17c-0.5-0.5-2.2-0.2-1.9-2.2l5.4-1.1c0.7-1.5-2.3-3.7,1.5-4.4c-0.7-0.1-1.8-0.1-1.3-1.1
							c12.5-10.1,17.9-26.9,32.9-35.3c-2.4,0.8-1.6-0.4-0.6-1.7c-0.9,0.6-1.3-1.1-2.2-1.5l6.2-3.6c-1.3-2.6,4.3-5.7,2.8-7.8l-1,1.9
							c-0.6-4.1-7.6-1.1-10.4-3.8c0.7,4.6-9.1,3.4-8.6,10.4c-1.3,0.4-0.4-1.5-1.4-1.6c0.5,2.1-0.3,3.5-2.7,5.3l-0.1-0.5
							c-4.8,6.7-8.3,8.4-15,15l1.9,0.6c-1.4,1.4-2.2,1.4-3.1,1.8c0.8,3.6,3.6-4.3,4.8-0.7c-4.7-0.3-8.8,10.9-13.4,9.6
							c-1.9,2.4,2.3,0.7,0.3,3l-1.4-0.1l0.7,1.6c-1.5,1.4-3.2,1.3-4.1,0.7c0.4-0.3,0.6-1.3,0.9-1.7c-2.7,1.2-4.2,6-5.1,6.4l2.4-1.8
							c-4.4,7.2-12,14.2-15.1,22l1.1,0.1c-2.6,5.8-3.9,3.2-7.5,9l0-0.3c-0.2,1.6-0.9,3.3-2.2,4.7c0.3-2-3.6,1.2-3.1-1.2
							c-2.8,6.3-1,3.5-1.1,9l-1.8-0.1c0.1,2,0.6,2.6-1.2,5.4c0.7-3-3.1,0.3-2.5-3.2c-7,3.5-4,10.3-9.8,9.8c1.2,5.1,5.6-3.4,5.2-1.4
							c2-0.4,0.7,4-1,5.5c-1.5,1.7-6.5-0.3-10,4.2c0.4-0.4,0.2-0.7,0.5-1.1c-2.2,1-1.5,4.2-4.5,5.1c1,2.7-2.2,2.6,0,4.9l2.7-4.5
							c-1.2,2.8-0.1,7.3-4.5,10c-0.3-0.7,0-2.4,0.3-3.4c-1.6,0.5-1.2,2.5-2.9,3.1c-2.2-2.3,3.4-5.4,3.5-9.4c-2,0.4-2,6.1-3.6,2.7
							c2,4.5-3.9,4-3.8,9.1l-1.3-1.4c-0.1,0.7-0.2,2.2-1,3.1l-0.6-3.1c-0.3,3.8-5.2,3.6-6.2,6.6c3.9-4.9,2.7,0.3,5.4-0.9
							c-2.9,7.6-6.7,0.4-11.4,7.7c0.5-1.1,3.6-2.7,3.2-0.7c-1.3,1-3.3,2.3-4.7,2.5c-3.3,4.7,2.1,0.5,1.5,3.2c-3,0.1-1,2.8-2,5.2
							l-1.5-1.2c-5.1,4.3,2.1,3.9-2.8,7.5l-0.5-3.6l-1.4,2.8l-1.3-1.9c-0.8,3.6-1.8,4.2-4.3,6.3c1.5,0.3,2.5,2.5,0.7,4.8
							c-2.1,0.8-0.7-2-3.1,1.4c-0.4-1.5-0.9-3.2,1.6-3.5c-0.4-0.5-0.4-1.5-0.7-2c-2.4,0.8-3.6,4-4.5,5.2c0.4-0.4,0.9-0.9,1.4-1
							l-1.6,6.3c-1.2,0.3-1.1-0.7-1.1-1.6c-0.6,1.1-0.4,2.3-1.4,3.8c-0.9-1.3-2.3-2.3-1.3-4.7l-2.2,5.5c-0.8-0.1-3.3,1.1-3.3,0.2
							c-2.7,1.9-2.5,7.9-6,10.4c0.1,0.4,0.1,0.9-0.3,1.7c-2.7,2.8-6.4,4.3-7.6,9.3l-3.8,0.3c-1.8,3.2,5-0.6,2,4.8
							c-2,3.9-2.9-0.2-4.4,0.4c-0.2,2.6-0.3,7.3-4.5,8.9C474.2,243.6,475.2,243.1,475.8,242z M448.7,277.9c0.2-0.9,0.3-3.1,1.6-2.9
							C451.4,277.2,450.1,277.1,448.7,277.9z M409.7,334c-0.1-0.9,0.8-1.5,2.1-1.9C411.3,332.9,410.7,333.5,409.7,334z M301.3,490.8
							c0,0,0-0.1,0-0.1C303.1,489.7,302.4,490,301.3,490.8z M298.1,493.5c0,0.5,0.2,0.6,0.5,0.7c-0.2-0.5,0.3-1.3,1.1-2
							C299.1,492.1,298.5,492.3,298.1,493.5z M568,155.2l-0.9,0.3C567.8,153.8,567.9,154.5,568,155.2z"/>
						<path d="M412.4,326.3c0.4,0,0.7,0.2,1.1,0.4C413.4,326.2,413.2,326,412.4,326.3z"/>
						<path d="M492.4,219.6c0,0,0.1-0.1,0.1-0.1c0-0.1-0.1-0.2-0.2-0.3L492.4,219.6z"/>
						<path d="M324.4,434.5c0.7-0.5,1.3-0.6,1.8-0.6C325.8,433.6,325.3,433.6,324.4,434.5z"/>
						<path d="M287.3,512.2l1.2-2.3c-0.7,1-1.3,1.1-1.9,1.4C287,511.5,287.8,511.5,287.3,512.2z"/>
						<path d="M264,522.2c-0.1,0.4-0.5,0.6-0.5,1.1l0.8,0.5C265.2,522.5,265.3,521.1,264,522.2z"/>
						<path d="M280.8,510c-1.4-0.9-2,0.8-2.9,2.4c0.1-0.1,0.1-0.2,0.2-0.2C279.6,514,280.2,512,280.8,510z"/>
						<path d="M277.7,512.8c-0.3,0.5-0.6,1-1,1.3C277.3,514.8,277.3,513.7,277.7,512.8z"/>
						<path d="M295.8,498.1c-0.9,0.4,1.3,1.7,0.5,1.7C297.2,501.8,297.9,493.8,295.8,498.1z"/>
						<polygon points="275.7,507.8 277.7,508.6 277.1,506.8 						"/>
						<path d="M285.8,497.6l-2.2,1.9c0.3,0.2,0.2,0.6,0,1C284.8,499.2,286.3,497.9,285.8,497.6z"/>
						<path d="M283.6,500.6c-0.6,0.7-1.1,1.4-1.2,2C282.7,502.2,283.4,501.3,283.6,500.6z"/>
						<polygon points="277.7,504.4 278.6,504 280,502.5 						"/>
						<path d="M305.5,473.6l1.5-2.8c-0.3-0.7-1.2-0.3-1.7,0.8C305.2,472.5,304.7,473.6,305.5,473.6z"/>
						<path d="M295.3,477.6c0.9-0.4,1.2-0.2,2.1-0.1l-1.9-1.6L295.3,477.6z"/>
						<path d="M300.6,470.1c-0.3-0.7,1.3-4.8-1.1-1.6C299.9,469.2,298.3,472,300.6,470.1z"/>
						<polygon points="332.7,435 332.3,435.6 335.5,438.1 						"/>
						<path d="M351.3,396.2c-3.1,2.3,1.4,2.3-1.7,4.1c0.2,1.3,2.5-1.5,2.6-0.3C352.9,397.6,354,397,351.3,396.2z"/>
						<path d="M352.2,400c-0.1,0.4-0.2,0.8-0.2,1.3C352.2,400.6,352.3,400.3,352.2,400z"/>
						<polygon points="661.3,42 663.5,40.6 661.5,41 						"/>
						<path d="M661.9,36.5l2.4,1.2l-0.9-2.6C663.1,35.6,662.6,36.5,661.9,36.5z"/>
						<path d="M440.4,279.8l0.4,0.5c0.8,0.1,1.2-0.3,1.9-1.1L440.4,279.8z"/>
						<polygon points="462.3,255.6 461.9,256 464.4,256.6 						"/>
						<path d="M477.1,232.3c-0.8,0.8-1.2,2.2-2,3C476.3,233.2,479.6,233.9,477.1,232.3z"/>
					</g>
				</g>
			</g>
		</g>
	</g>
	<g>
		<path d="M174.3,394v4.1H35.9V135.5h4.5V394H174.3z"/>
		<path d="M332.6,214.3v183.8h-1.1c-1.8,0-2.6-1-2.6-3l-0.8-35.3c-4.4,6.3-9.2,11.9-14.4,17.1c-5.3,5.1-10.9,9.5-17.1,13
			c-6.1,3.6-12.6,6.3-19.3,8.3c-6.8,1.9-13.7,2.9-20.8,2.9c-20.5,0-35.8-6.1-45.8-18.2c-10-12.1-15-29.1-15-50.8V214.3h4.5v117.8
			c0,10.3,1.1,19.4,3.4,27.5c2.3,8.1,5.7,14.9,10.4,20.5c4.7,5.6,10.5,9.9,17.5,12.8c7,2.9,15.3,4.4,24.9,4.4
			c14.4,0,27.6-3.8,39.8-11.4c12.1-7.6,22.8-18.2,31.9-31.7V214.3H332.6z"/>
		<path d="M628.8,211.3c12.9,0,24.3,2.3,34.3,6.8c10,4.6,18.4,11,25.2,19.2c6.8,8.3,12,18.2,15.5,29.9c3.5,11.7,5.3,24.7,5.3,38.9
			c0,14.3-1.8,27.2-5.3,38.7c-3.5,11.6-8.7,21.5-15.5,29.7c-6.8,8.3-15.2,14.6-25.2,19c-10,4.4-21.5,6.7-34.3,6.7
			c-13,0-24.5-2.2-34.4-6.7s-18.3-10.8-25.1-19c-6.8-8.3-12-18.2-15.5-29.7c-3.5-11.6-5.3-24.5-5.3-38.7c0-14.3,1.8-27.2,5.3-38.9
			c3.5-11.7,8.7-21.7,15.5-29.9c6.8-8.3,15.2-14.7,25.1-19.2C604.4,213.6,615.8,211.3,628.8,211.3z M628.8,396.7
			c12.5,0,23.5-2.2,33-6.6c9.5-4.4,17.4-10.5,23.7-18.4c6.3-7.9,11.1-17.4,14.3-28.5c3.2-11.1,4.8-23.4,4.8-37
			c0-13.5-1.6-25.9-4.8-37c-3.2-11.2-7.9-20.8-14.3-28.8c-6.3-8-14.2-14.2-23.7-18.7c-9.5-4.4-20.5-6.7-33-6.7
			c-12.6,0-23.7,2.2-33.1,6.7c-9.4,4.4-17.3,10.7-23.6,18.7c-6.3,8-11.1,17.6-14.3,28.8c-3.2,11.2-4.8,23.5-4.8,37
			c0,13.5,1.6,25.8,4.8,37c3.2,11.1,7.9,20.6,14.3,28.5c6.3,7.9,14.2,14,23.6,18.4C605.2,394.5,616.2,396.7,628.8,396.7z"/>
		<path d="M901.8,214.3l-79.9,183.8h-3.4l-79.9-183.8h2.6c1,0,1.8,0.3,2.3,0.8c0.5,0.6,0.9,1.2,1.1,1.8l73.2,168.5
			c0.6,1.1,1.1,2.3,1.5,3.5c0.4,1.2,0.7,2.3,0.9,3.5c0.2-1.1,0.6-2.3,0.9-3.5c0.4-1.2,0.9-2.3,1.5-3.5l73.2-168.5
			c0.9-1.8,2-2.6,3.4-2.6H901.8z"/>
		<path d="M1011.3,211.3c12.9,0,24.3,2.3,34.3,6.8c10,4.6,18.4,11,25.2,19.2c6.8,8.3,12,18.2,15.5,29.9c3.5,11.7,5.3,24.7,5.3,38.9
			c0,14.3-1.8,27.2-5.3,38.7c-3.5,11.6-8.7,21.5-15.5,29.7c-6.8,8.3-15.2,14.6-25.2,19c-10,4.4-21.5,6.7-34.3,6.7
			c-13,0-24.5-2.2-34.4-6.7s-18.3-10.8-25.1-19c-6.8-8.3-12-18.2-15.5-29.7c-3.5-11.6-5.3-24.5-5.3-38.7c0-14.3,1.8-27.2,5.3-38.9
			c3.5-11.7,8.7-21.7,15.5-29.9c6.8-8.3,15.2-14.7,25.1-19.2C986.9,213.6,998.3,211.3,1011.3,211.3z M1011.3,396.7
			c12.5,0,23.5-2.2,33-6.6c9.5-4.4,17.4-10.5,23.7-18.4c6.3-7.9,11.1-17.4,14.3-28.5c3.2-11.1,4.8-23.4,4.8-37
			c0-13.5-1.6-25.9-4.8-37c-3.2-11.2-7.9-20.8-14.3-28.8c-6.3-8-14.2-14.2-23.7-18.7c-9.5-4.4-20.5-6.7-33-6.7
			c-12.6,0-23.7,2.2-33.1,6.7c-9.4,4.4-17.3,10.7-23.6,18.7c-6.3,8-11.1,17.6-14.3,28.8c-3.2,11.2-4.8,23.5-4.8,37
			c0,13.5,1.6,25.8,4.8,37c3.2,11.1,7.9,20.6,14.3,28.5c6.3,7.9,14.2,14,23.6,18.4C987.7,394.5,998.7,396.7,1011.3,396.7z"/>
		<polygon points="368.6,213.9 374.9,215 509.7,397.8 503.4,396.7 		"/>
	</g>
	<text transform="matrix(1.1159 0 0 1 527.0144 484.0702)" class="st0 st1">Luxovo Studios</text>
	<rect x="527" y="419.3" width="566.1" height="6.9"/>
</g>
</svg>
