<svg id="Layer_1" data-name="Layer 1" xmlns="http://www.w3.org/2000/svg" viewBox="0 0 189.29 74.59"><defs><style>.cls-1,.cls-3{fill:#fff;}.cls-2{fill:none;}.cls-2,.cls-3{stroke:#fff;stroke-miterlimit:10;}.cls-3{font-size:11.4px;font-family:Aileron-Thin, Aileron;}.cls-4{letter-spacing:0em;}.cls-5{letter-spacing:0.01em;}</style></defs><title>LuxovoWhiteSmallLogo2020</title><line class="cls-1" x1="98.22" x2="40.91" y2="74.15"/><path class="cls-1" d="M44.2,90.82c-.09.1,0,.13,0,.16C44.35,90.78,44.18,90.8,44.2,90.82Z" transform="translate(-2.74 -16.38)"/><polygon class="cls-1" points="42.67 72.48 42.68 72.54 42.8 72.21 42.67 72.48"/><path class="cls-1" d="M46.72,87.17c-.26.05-.45.63-.73.89l-.07,0v.22A9.76,9.76,0,0,1,46.72,87.17Z" transform="translate(-2.74 -16.38)"/><path class="cls-1" d="M47.72,86.51c-.1,0,.1-.23-.18.2l0,0Z" transform="translate(-2.74 -16.38)"/><path class="cls-1" d="M47.58,86.68c-.13.18.14-.08,0,0Z" transform="translate(-2.74 -16.38)"/><path class="cls-1" d="M48.19,85.83l-.13.27c.07,0,.24-.23.2-.13C48.42,85.71,48.35,85.74,48.19,85.83Z" transform="translate(-2.74 -16.38)"/><path class="cls-1" d="M48.26,85.53l-.07.14S48.24,85.63,48.26,85.53Z" transform="translate(-2.74 -16.38)"/><path class="cls-1" d="M48,86l.16-.29s-.1,0-.08.13C48.08,85.75,48.08,85.83,48,86Z" transform="translate(-2.74 -16.38)"/><path class="cls-1" d="M47.89,86.09c-.13.11-.28.26-.15,0C47.42,86.54,47.57,86.55,47.89,86.09Z" transform="translate(-2.74 -16.38)"/><path class="cls-1" d="M46.64,87l-.18.14-.07.19C46.43,87.21,46.69,87,46.64,87Z" transform="translate(-2.74 -16.38)"/><path class="cls-1" d="M49.39,84.43s-.14,0-.19,0l-.1.2C49.19,84.56,49.34,84.41,49.39,84.43Z" transform="translate(-2.74 -16.38)"/><path class="cls-1" d="M49.2,84.43l.15-.3C49.16,84.36,49.15,84.42,49.2,84.43Z" transform="translate(-2.74 -16.38)"/><polygon class="cls-1" points="45.39 68.99 45.17 69.5 45.45 68.91 45.39 68.99"/><polygon class="cls-1" points="47.41 67.06 47.37 67.26 47.47 66.92 47.41 67.06"/><path class="cls-1" d="M50.65,82.78c0,.15.21-.07.16.07a2.29,2.29,0,0,0,.26-.55A1.55,1.55,0,0,1,50.65,82.78Z" transform="translate(-2.74 -16.38)"/><path class="cls-1" d="M51.18,82a2.54,2.54,0,0,0-.11.28A1.31,1.31,0,0,0,51.18,82Z" transform="translate(-2.74 -16.38)"/><path class="cls-1" d="M49.7,83.71a.39.39,0,0,0,.24-.14l-.16,0Z" transform="translate(-2.74 -16.38)"/><path class="cls-1" d="M49.78,83.61h0l.17-.22Z" transform="translate(-2.74 -16.38)"/><path class="cls-1" d="M49.68,83.73l0,0S49.68,83.71,49.68,83.73Z" transform="translate(-2.74 -16.38)"/><path class="cls-1" d="M48.73,84.75c.07-.19.26-.55,0-.29C48.66,84.61,48.84,84.46,48.73,84.75Z" transform="translate(-2.74 -16.38)"/><path class="cls-1" d="M49.48,83.78l-.23.26s.1,0,.06.08Z" transform="translate(-2.74 -16.38)"/><polygon class="cls-1" points="46.81 67.24 46.73 67.4 46.82 67.3 46.81 67.24"/><path class="cls-1" d="M50.74,82.43A2,2,0,0,1,51,82a5.73,5.73,0,0,0-.39.46S50.61,82.6,50.74,82.43Z" transform="translate(-2.74 -16.38)"/><path class="cls-1" d="M50.26,83l0,0S50.25,83,50.26,83Z" transform="translate(-2.74 -16.38)"/><path class="cls-1" d="M52.12,80.55h0v0Z" transform="translate(-2.74 -16.38)"/><path class="cls-1" d="M50.57,82.47a.59.59,0,0,0-.17.28c.06-.1.13-.19.2-.29S50.6,82.42,50.57,82.47Z" transform="translate(-2.74 -16.38)"/><path class="cls-1" d="M51.46,81.58l-.2.17C51.32,81.71,51.46,81.62,51.46,81.58Z" transform="translate(-2.74 -16.38)"/><path class="cls-1" d="M50.33,82.94v0S50.36,82.94,50.33,82.94Z" transform="translate(-2.74 -16.38)"/><path class="cls-1" d="M50.33,82.94a1.14,1.14,0,0,0,.07-.2,2.14,2.14,0,0,0-.12.22Z" transform="translate(-2.74 -16.38)"/><path class="cls-1" d="M51.91,79.69c.06.08-.11.45-.4.65s.25.34.57.22c0,0-.06-.06.1-.37-.12.06-.57.53-.46.24s.26-.27.43-.42c-.21.07.21-.57,0-.6l-.19.35S52,79.62,51.91,79.69Z" transform="translate(-2.74 -16.38)"/><path class="cls-1" d="M51.68,81.07l-.08.12a1.92,1.92,0,0,1,.41-.3c.11-.22.11-.28.09-.31l-.44.54Z" transform="translate(-2.74 -16.38)"/><path class="cls-1" d="M51.21,81.7c0-.15.15-.45-.07-.36-.25.33-.11.29-.22.51.39-.55-.07.19.27-.16a3.6,3.6,0,0,1-.2.3l.25-.24h0s0,0,0,0h0a.1.1,0,0,1,0,0c.14-.14,0,0,0,0v0h0l.36-.57A4.76,4.76,0,0,0,51.21,81.7Z" transform="translate(-2.74 -16.38)"/><path class="cls-1" d="M48.72,84h0S48.78,84,48.72,84Z" transform="translate(-2.74 -16.38)"/><path class="cls-1" d="M48.95,83.85a.43.43,0,0,1-.11.22c-.11.09,0,0-.07,0s-.14.31.08.11l0,0c.19-.19.51-.38.5-.34A.91.91,0,0,0,48.95,83.85Z" transform="translate(-2.74 -16.38)"/><path class="cls-1" d="M50.07,82.74l.3-.47-.25.17.05,0C50,82.7,50.06,82.68,50.07,82.74Z" transform="translate(-2.74 -16.38)"/><polygon class="cls-1" points="49.45 64.15 49.5 64.28 49.57 63.93 49.45 64.15"/><polygon class="cls-1" points="49.89 63.57 49.95 63.65 50.02 63.46 49.89 63.57"/><path class="cls-1" d="M76.71,46.78l.08-.15Z" transform="translate(-2.74 -16.38)"/><path class="cls-1" d="M76,47.72l0,.05C76,47.71,76,47.68,76,47.72Z" transform="translate(-2.74 -16.38)"/><path class="cls-1" d="M63.53,65.83c.22-.13.5-.26.39-.3h-.13A1.21,1.21,0,0,1,63.53,65.83Z" transform="translate(-2.74 -16.38)"/><path class="cls-1" d="M70.48,55.78l-.07,0,0,.19Z" transform="translate(-2.74 -16.38)"/><path class="cls-1" d="M70.23,55.37l.25-.21A1.9,1.9,0,0,0,70.23,55.37Z" transform="translate(-2.74 -16.38)"/><path class="cls-1" d="M80.59,41.58l0-.22C80.44,41.59,80.56,41.52,80.59,41.58Z" transform="translate(-2.74 -16.38)"/><path class="cls-1" d="M57.15,74a3.07,3.07,0,0,0,.37-.37C57.31,73.83,57.12,73.93,57.15,74Z" transform="translate(-2.74 -16.38)"/><path class="cls-1" d="M77.34,47.86c0-.09.05-.14,0-.15S77.3,47.86,77.34,47.86Z" transform="translate(-2.74 -16.38)"/><path class="cls-1" d="M57.88,73.2l-.09.07a3,3,0,0,1-.28.4A1,1,0,0,0,57.88,73.2Z" transform="translate(-2.74 -16.38)"/><path class="cls-1" d="M95.06,23l0,0S95.08,23,95.06,23Z" transform="translate(-2.74 -16.38)"/><path class="cls-1" d="M100.12,18.25l-.17.23A1.26,1.26,0,0,0,100.12,18.25Z" transform="translate(-2.74 -16.38)"/><path class="cls-1" d="M54.46,77.67c-.09.13,0,0,0,0Z" transform="translate(-2.74 -16.38)"/><path class="cls-1" d="M53.66,78s0-.06,0-.08A.1.1,0,0,1,53.66,78Z" transform="translate(-2.74 -16.38)"/><path class="cls-1" d="M58.28,71.58h0S58.25,71.59,58.28,71.58Z" transform="translate(-2.74 -16.38)"/><path class="cls-1" d="M54.28,77.82l.15-.14Z" transform="translate(-2.74 -16.38)"/><path class="cls-1" d="M54.34,77.83l-.09.1S54.27,77.95,54.34,77.83Z" transform="translate(-2.74 -16.38)"/><path class="cls-1" d="M54.58,77.49l-.16.19,0,0Z" transform="translate(-2.74 -16.38)"/><path class="cls-1" d="M87.57,33.16l0,0C87.66,33,87.63,33.05,87.57,33.16Z" transform="translate(-2.74 -16.38)"/><path class="cls-1" d="M65.09,62v0l0,0Z" transform="translate(-2.74 -16.38)"/><path class="cls-1" d="M65.36,61.49a.7.7,0,0,1-.26.49l.36,0Z" transform="translate(-2.74 -16.38)"/><path class="cls-1" d="M78.43,44.51l-.31.25c.16-.47.41-.7.08-.5.24.25-.9,1.22-.66,1.47l-.21.16c0-.06,0-.08.09-.13-.43.29,0,.44-.46.92-.16.16-.29.25-.23.11l-.24.45c-.09.11-.12,0,0-.06l-.44.62h0a4,4,0,0,1-.15.48c-.16.12,0-.1,0-.09l-.19.38c-.17.08,0-.25.16-.47-.51.1-.15.33-.82.88l.21-.34c-.31.08-.44.37-.81.65.11,0,.79-.53.58-.11a1.12,1.12,0,0,0-.31.45c-.1-.07-.22.14-.4.38l-.11-.11c-.16.29-.08.32-.14.51a.56.56,0,0,1-.51.26c-.38.44.4-.2,0,.37a4.4,4.4,0,0,0-.78,1.17c-.25.23,0-.11-.15,0l-.08.32c0,.06-.06,0-.07,0-.12.23.11.11-.09.45.07.19-.7.49-.84,1-.11.07,0-.11-.11-.11a6.22,6.22,0,0,0-.48,1.06l-.37.31c.31-.2.15.24,0,.61l.29-.15-.31.54c-.07,0-.07,0-.06-.16l0,.11c-.18.14-.18,0-.16-.19l.21-.12c0-.18,0-.36-.07-.39a.75.75,0,0,1-.09.19s0-.08,0-.08,0,.08-.07.18h-.23l0,.07-.58.57a7.55,7.55,0,0,1-.82,1.9c0-.26-.14-.17-.25-.27.28-.1.38-.61.7-1-.17.19-.19.1-.17,0l-.4.76c-.09-.09-.19.08-.36.23.3,0-.26.6-.41.92-.08,0-.1-.15.18-.47-.43.25-.14.66-.54.92.06-.08.11-.12.1-.18-.09.24-.49.67-.47.51l.06-.08c-.44.52-1.27,1.65-1.17,1.86a.94.94,0,0,1-.16-.29l-.18,1.4c-.08-.2-.68-.14-.41-.65a1.84,1.84,0,0,0-.43.56c.09-.07.38-.06.3.07a4,4,0,0,0-.71.46c.13-.11.25.21.08.42,0-.06-.24-.16-.2-.25l-.18.69c.06-.16-.17-.17-.32-.1.09,0-.35.44-.43.6l.22-.18c-.49.56-.13.82-.59,1.39,0-.11-.15-.39-.4-.12a3.23,3.23,0,0,1-.22,1.6l-.14,0-.23.45a10.45,10.45,0,0,1,.34-1.83c-.22.18-.12,0-.37.33-.15.07,0-.25.12-.35l-.63.73c.16.07-.32.69-.18.74l.5-.94c.16.07,0,.77-.43,1.29-.16.1-.16-.29-.21-.31a1.79,1.79,0,0,1-.38.61l.11-.28c-.28.26-.2.63-.61.89-.1.12-.46.24-.4.32.31-.09.81.24.82.46a7.92,7.92,0,0,1-.84.63c-.28.11,0-.53-.28-.43,0,0,0,.18,0,.24s-.07-.14-.27.16c.1.15-.46.57,0,.22-.18.31-.26.27-.5.61.17,0,.07.52-.11.83,0,0-.11,0-.16,0-.45.56-.75.82-1.17,1.35-.07,0-.31.25-.28.1a1,1,0,0,1-.17.37c-.36.23.27-.38-.06-.25.06.08-.22.51-.35.78.18,0,.44-.52.57-.8.17.13,0,.67-.33,1.29s-.26.11-.29.2c-.67.81-.26.93-.91,1.53C55,76.35,55.08,76,55,76c.24-.39.5-.5.68-.75l-.28.26a1.51,1.51,0,0,1,.34-.51c-.27.16-1.1,1.39-1.69,2-.05.14-.17.37-.05.31l.14-.21c.23-.12-.18.47.06.25a3.28,3.28,0,0,1-.64,1l-.18,0s.27-.19.31-.33c-.07.2-.62.46-.59.76l.29-.2a3.62,3.62,0,0,1-.58,1.07c.24-.06,0-.09.37-.22-.34.07.68-.86.24-.67.35-.12.4-.38.79-.59,0,0-.17.06.07-.21a.38.38,0,0,1,0-.09l0,0h0s0,0,0,0a.46.46,0,0,1-.17.1c0-.21.37-.66.44-.85s0,.11.11,0l.11-.28c.11,0,.49-.34.24.1l.28-.36a2.3,2.3,0,0,0,.56-.66c.15-.15.23-.5.19-.3l.38-.61h0a9,9,0,0,1,1.39-1.77,3.83,3.83,0,0,1,.51-.71h.12c.16-.26.63-.66.63-.83.41-.1.95-1.13,1.31-1.52l-.09-.09a8.87,8.87,0,0,0,.66-1l-.11,0a12.4,12.4,0,0,1,1.05-1.25c0,.06-.1.18-.19.25.65-.43.81-1.35,1.37-1.77a.81.81,0,0,1,.25-.32l0,0,0-.05.19-.15-.17.12a4.41,4.41,0,0,0,.28-.44h.15l0,0c.15-.12,0-.15-.09-.13a1.4,1.4,0,0,0,.1-.25c.25,0,.26-.44.55-.48,0-.16.53-.81.43-1,0,0,.07,0,0,.06a1.54,1.54,0,0,0,.37-.5l.18,0,.12-.5c.25-.17.36-.23.28.07.27-.65.28-.48.5-1l.06.08c.12-.17.22-.51.36-.56.43-.25,1.42-1.8,2.29-2.64-.37,0,.44-.36.29-.53.1,0,.23-.12.16.07.32-.52.64-.66.75-1.1.1,0,0,.16.07.14s.07-.19.14-.21,0,.11,0,.2c.37-.5.24-.68.11-.84a.75.75,0,0,0,.39-.58c.12,0,.28-.15.07.17.14-.17.89-1,.77-1.11a.74.74,0,0,0,.22-.29c.31-.38.34-.4.62-.79l-.1.09c0-.27.21-.34.43-.66v0c.65-.61.18-.34.84-.94l-.12,0c-.15-.22.59-.52.82-1l-.17.1c.1-.27.75-.4.95-.6.05,0,0,.1-.07.17.56-.48-.07-.17.24-.62.13,0,.09.23.33,0,.17-.1.43-1,.86-1.3-.12,0-.24.09-.12-.14s.83-.67.88-1.08c0,0,.07,0,.08,0a5.67,5.67,0,0,0,.54-1c.49,0,1-1.57,1.26-1.33l.54-.73,0,0a1.81,1.81,0,0,0,.48-.88c.1-.09.07,0,.08,0a3.3,3.3,0,0,0,.9-1.38l.14,0a15.16,15.16,0,0,0,1.3-1.6.13.13,0,0,1,0,.11c.46-.83,1.64-1.56,1.49-2.11l.29-.56c-.52.61-.08-.21-.34,0,.17-.26.6-.56.39-.24l-.05,0c.1.26.67-.73.79-.62,1-1.25,2-2.38,2.9-3.54l-.25,0,.32-.4c.12-.08.22-.06,0,.23.2-.09.31-.54.28-.57.5-.52,0,.35.14.18l.17-.24-.06,0a1.38,1.38,0,0,1,.32-.64c.2-.2.18,0,.25-.13s0,0,.11-.13l.41-.5-.27.12c.12-.27.38-.48.07-.34.47-.19,1.55-1.85,1.77-2A4.49,4.49,0,0,1,92,28.48c-.1.08-.27,0,0-.29.17.33.59-.52,1-.65-.31.14.7-1,.23-.74.24-.26.11.06.34-.1.41-.74,1.2-1.41,1.8-2.26,0,0-.18.06-.1-.16l.51-.3c.11-.18-.09-.3.26-.51-.06,0-.15,0-.08-.07,1.41-1.48,2.4-3.4,4-4.78-.24.17-.13,0,0-.15-.1.1-.08-.07-.15-.08l.66-.58c0-.23.56-.74.49-.91l-.14.23c.08-.4-.64.15-.8,0-.08.45-.91.66-1.08,1.37-.13.09,0-.15-.08-.12a1.12,1.12,0,0,1-.4.64v0c-.63.86-1,1.16-1.78,2.07h.15a1.57,1.57,0,0,1-.33.29c0,.34.45-.57.44-.23-.4.12-1.11,1.43-1.47,1.45-.24.31.18,0-.06.3l-.12,0V23c-.17.2-.32.24-.38.21a1.66,1.66,0,0,0,.13-.21,6.25,6.25,0,0,0-.65.84l.27-.27c-.61.9-1.49,1.88-2,2.8l.09,0c-.41.69-.44.47-.94,1.19v0a2.06,2.06,0,0,1-.34.56c.08-.21-.35.25-.23,0-.44.75-.19.39-.38,1l-.15,0a1.24,1.24,0,0,1-.28.61c.16-.33-.28.13-.12-.25-.72.6-.67,1.2-1.16,1.35-.05.49.6-.54.5-.32.19-.11-.06.39-.26.6s-.56.19-1,.78c0-.06,0-.07.08-.13-.22.18-.26.48-.55.68,0,.24-.28.34-.15.51l.38-.56a3.29,3.29,0,0,1-.71,1.19,1.39,1.39,0,0,1,.13-.36c-.16.11-.19.31-.35.42-.12-.16.47-.68.6-1.09-.19.11-.36.7-.41.41,0,.4-.47.55-.61,1.08l-.07-.1a1.54,1.54,0,0,1-.18.35l0-.3c-.14.4-.57.55-.75.9.49-.64.22-.06.5-.28-.49.89-.6.27-1.24,1.19.08-.13.4-.41.3-.19a2.52,2.52,0,0,1-.49.41c-.43.6.17,0,0,.28-.27.11-.18.32-.34.61l-.1-.07c-.58.62.06.33-.48.88l.06-.36-.21.34-.06-.15a2.37,2.37,0,0,1-.58.81c.13,0,.14.18-.09.48s0-.18-.31.25a.43.43,0,0,1,.25-.42s0-.14,0-.18a3.19,3.19,0,0,0-.55.69A.89.89,0,0,1,82.7,39l-.34.71c-.11.07-.08,0,0-.13-.09.13-.11.25-.24.44,0-.11-.13-.16,0-.44l-.36.65c-.06,0-.32.23-.29.13-.29.29-.46.91-.85,1.29a.49.49,0,0,1-.08.19,5.16,5.16,0,0,0-1,1.23l-.35.16c-.26.4.46-.23,0,.43-.29.47-.25.07-.4.2a2.14,2.14,0,0,1-.67,1.08A3.6,3.6,0,0,1,78.43,44.51Zm-3.49,4.64c0-.1.12-.33.23-.35C75.2,49,75.09,49,74.94,49.15Zm-5.17,7.16A.54.54,0,0,1,70,56,1.12,1.12,0,0,1,69.78,56.31Zm-14.37,20h0C55.6,76.09,55.53,76.15,55.41,76.27Zm-.36.38c0,.05,0,.06,0,.05a.56.56,0,0,1,.16-.24S55.12,76.51,55.05,76.65ZM89.22,32.36l-.09.06C89.25,32.22,89.23,32.29,89.22,32.36Z" transform="translate(-2.74 -16.38)"/><path class="cls-1" d="M70.26,55.42a.11.11,0,0,1,.08,0S70.33,55.36,70.26,55.42Z" transform="translate(-2.74 -16.38)"/><path class="cls-1" d="M80.59,41.62h0a.05.05,0,0,0,0,0Z" transform="translate(-2.74 -16.38)"/><path class="cls-1" d="M59.18,69.64a.61.61,0,0,1,.18-.13S59.28,69.52,59.18,69.64Z" transform="translate(-2.74 -16.38)"/><path class="cls-1" d="M53.52,79l.18-.28a.84.84,0,0,1-.22.21S53.59,78.88,53.52,79Z" transform="translate(-2.74 -16.38)"/><path class="cls-1" d="M51.16,80.8s-.06.08-.08.13l.05,0C51.26,80.78,51.31,80.64,51.16,80.8Z" transform="translate(-2.74 -16.38)"/><path class="cls-1" d="M53,79c-.1,0-.2.15-.33.34l0,0C52.79,79.41,52.9,79.19,53,79Z" transform="translate(-2.74 -16.38)"/><path class="cls-1" d="M52.66,79.35l-.13.17C52.56,79.58,52.6,79.46,52.66,79.35Z" transform="translate(-2.74 -16.38)"/><path class="cls-1" d="M54.7,77.22c-.09.07.06.13,0,.16C54.72,77.55,55,76.69,54.7,77.22Z" transform="translate(-2.74 -16.38)"/><polygon class="cls-1" points="49.89 62.53 50.05 62.54 50.05 62.37 49.89 62.53"/><path class="cls-1" d="M53.84,77.5l-.26.27s0,.05,0,.11C53.7,77.7,53.87,77.52,53.84,77.5Z" transform="translate(-2.74 -16.38)"/><path class="cls-1" d="M53.56,77.88a1.13,1.13,0,0,0-.17.25A2.56,2.56,0,0,0,53.56,77.88Z" transform="translate(-2.74 -16.38)"/><polygon class="cls-1" points="50.18 62.1 50.27 62.03 50.43 61.83 50.18 62.1"/><path class="cls-1" d="M56.31,74.34l.22-.34c0-.06-.1,0-.18.14S56.24,74.36,56.31,74.34Z" transform="translate(-2.74 -16.38)"/><path class="cls-1" d="M55.29,75.11a.38.38,0,0,1,.19-.08l-.12-.1Z" transform="translate(-2.74 -16.38)"/><path class="cls-1" d="M56,74.14c0-.06.26-.54,0-.13C56,74.07,55.73,74.42,56,74.14Z" transform="translate(-2.74 -16.38)"/><polygon class="cls-1" points="57.15 53.02 57.09 53.11 57.3 53.25 57.15 53.02"/><path class="cls-1" d="M62.73,64.75c-.34.34.05.19-.27.49,0,.13.27-.24.24-.12C62.82,64.84,62.94,64.74,62.73,64.75Z" transform="translate(-2.74 -16.38)"/><path class="cls-1" d="M62.69,65.11l-.06.14A.73.73,0,0,0,62.69,65.11Z" transform="translate(-2.74 -16.38)"/><polygon class="cls-1" points="98.18 1.05 98.41 0.84 98.22 0.94 98.18 1.05"/><path class="cls-1" d="M101.14,16.84l.17,0v-.24C101.27,16.71,101.2,16.82,101.14,16.84Z" transform="translate(-2.74 -16.38)"/><path class="cls-1" d="M74.16,49.63l0,0c.06,0,.11-.07.2-.18Z" transform="translate(-2.74 -16.38)"/><polygon class="cls-1" points="74.08 30 74.04 30.05 74.23 30.03 74.08 30"/><path class="cls-1" d="M78.84,43.46c-.09.11-.17.26-.26.38C78.75,43.57,79,43.54,78.84,43.46Z" transform="translate(-2.74 -16.38)"/><path class="cls-1" d="M27.76,65.93v.71H3.24V19.92H4v46Z" transform="translate(-2.74 -16.38)"/><polygon class="cls-2" points="25.01 49.55 25.01 50.26 0.5 50.26 0.5 3.54 1.21 3.54 1.21 49.55 25.01 49.55"/><path class="cls-1" d="M55.82,34V66.64h-.2q-.47,0-.47-.53L55,59.84a21.27,21.27,0,0,1-2.57,3,15.47,15.47,0,0,1-3,2.32A15.07,15.07,0,0,1,46,66.66a13.35,13.35,0,0,1-3.7.52q-5.47,0-8.13-3.24t-2.67-9V34h.89V54.88a18.18,18.18,0,0,0,.6,4.88,9.68,9.68,0,0,0,1.85,3.65,8,8,0,0,0,3.12,2.28,11.41,11.41,0,0,0,4.43.78,13,13,0,0,0,7.07-2,19.25,19.25,0,0,0,5.67-5.63V34Z" transform="translate(-2.74 -16.38)"/><path class="cls-2" d="M55.82,34V66.64h-.2q-.47,0-.47-.53L55,59.84a21.27,21.27,0,0,1-2.57,3,15.47,15.47,0,0,1-3,2.32A15.07,15.07,0,0,1,46,66.66a13.35,13.35,0,0,1-3.7.52q-5.47,0-8.13-3.24t-2.67-9V34h.89V54.88a18.18,18.18,0,0,0,.6,4.88,9.68,9.68,0,0,0,1.85,3.65,8,8,0,0,0,3.12,2.28,11.41,11.41,0,0,0,4.43.78,13,13,0,0,0,7.07-2,19.25,19.25,0,0,0,5.67-5.63V34Z" transform="translate(-2.74 -16.38)"/><path class="cls-1" d="M108.49,33.39a14.55,14.55,0,0,1,6.1,1.22A12.41,12.41,0,0,1,119.07,38a15,15,0,0,1,2.75,5.31,24.06,24.06,0,0,1,.93,6.91,23.71,23.71,0,0,1-.93,6.88,15,15,0,0,1-2.75,5.28,12.08,12.08,0,0,1-4.48,3.38,16.35,16.35,0,0,1-12.21,0,12.11,12.11,0,0,1-4.47-3.38,15,15,0,0,1-2.75-5.28,23.69,23.69,0,0,1-.93-6.88,24,24,0,0,1,.93-6.91A15,15,0,0,1,97.91,38a12.44,12.44,0,0,1,4.47-3.42A14.51,14.51,0,0,1,108.49,33.39Zm0,32.92a13.88,13.88,0,0,0,5.86-1.17,11.46,11.46,0,0,0,4.22-3.27,14.28,14.28,0,0,0,2.53-5.06,23.79,23.79,0,0,0,.85-6.56,24,24,0,0,0-.85-6.58,14.63,14.63,0,0,0-2.53-5.11,11.47,11.47,0,0,0-4.22-3.32,15.17,15.17,0,0,0-11.75,0,11.5,11.5,0,0,0-4.2,3.32,14.62,14.62,0,0,0-2.53,5.11A24,24,0,0,0,95,50.25a23.79,23.79,0,0,0,.85,6.56,14.27,14.27,0,0,0,2.53,5.06,11.48,11.48,0,0,0,4.2,3.27A13.85,13.85,0,0,0,108.49,66.31Z" transform="translate(-2.74 -16.38)"/><path class="cls-2" d="M108.49,33.39a14.55,14.55,0,0,1,6.1,1.22A12.41,12.41,0,0,1,119.07,38a15,15,0,0,1,2.75,5.31,24.06,24.06,0,0,1,.93,6.91,23.71,23.71,0,0,1-.93,6.88,15,15,0,0,1-2.75,5.28,12.08,12.08,0,0,1-4.48,3.38,16.35,16.35,0,0,1-12.21,0,12.11,12.11,0,0,1-4.47-3.38,15,15,0,0,1-2.75-5.28,23.69,23.69,0,0,1-.93-6.88,24,24,0,0,1,.93-6.91A15,15,0,0,1,97.91,38a12.44,12.44,0,0,1,4.47-3.42A14.51,14.51,0,0,1,108.49,33.39Z" transform="translate(-2.74 -16.38)"/><path class="cls-2" d="M108.49,66.31a13.88,13.88,0,0,0,5.86-1.17,11.46,11.46,0,0,0,4.22-3.27,14.28,14.28,0,0,0,2.53-5.06,23.79,23.79,0,0,0,.85-6.56,24,24,0,0,0-.85-6.58,14.63,14.63,0,0,0-2.53-5.11,11.47,11.47,0,0,0-4.22-3.32,15.17,15.17,0,0,0-11.75,0,11.5,11.5,0,0,0-4.2,3.32,14.62,14.62,0,0,0-2.53,5.11A24,24,0,0,0,95,50.25a23.79,23.79,0,0,0,.85,6.56,14.27,14.27,0,0,0,2.53,5.06,11.48,11.48,0,0,0,4.2,3.27A13.85,13.85,0,0,0,108.49,66.31Z" transform="translate(-2.74 -16.38)"/><path class="cls-1" d="M157,34,142.78,66.64h-.6L128,34h.47a.51.51,0,0,1,.4.15,1.1,1.1,0,0,1,.2.32l13,29.95a3.37,3.37,0,0,1,.27.62q.1.32.17.62.07-.3.17-.62a3.32,3.32,0,0,1,.27-.62l13-29.95q.23-.47.6-.47Z" transform="translate(-2.74 -16.38)"/><path class="cls-2" d="M157,34,142.78,66.64h-.6L128,34h.47a.51.51,0,0,1,.4.15,1.1,1.1,0,0,1,.2.32l13,29.95a3.37,3.37,0,0,1,.27.62q.1.32.17.62.07-.3.17-.62a3.32,3.32,0,0,1,.27-.62l13-29.95q.23-.47.6-.47Z" transform="translate(-2.74 -16.38)"/><path class="cls-1" d="M176.43,33.39a14.55,14.55,0,0,1,6.1,1.22A12.41,12.41,0,0,1,187,38a15,15,0,0,1,2.75,5.31,24.06,24.06,0,0,1,.93,6.91,23.71,23.71,0,0,1-.93,6.88A15,15,0,0,1,187,62.41a12.08,12.08,0,0,1-4.48,3.38,16.35,16.35,0,0,1-12.21,0,12.11,12.11,0,0,1-4.47-3.38,15,15,0,0,1-2.75-5.28,23.69,23.69,0,0,1-.93-6.88,24,24,0,0,1,.93-6.91A15,15,0,0,1,165.86,38a12.44,12.44,0,0,1,4.47-3.42A14.51,14.51,0,0,1,176.43,33.39Zm0,32.92a13.88,13.88,0,0,0,5.86-1.17,11.46,11.46,0,0,0,4.22-3.27A14.28,14.28,0,0,0,189,56.81a23.79,23.79,0,0,0,.85-6.56,24,24,0,0,0-.85-6.58,14.63,14.63,0,0,0-2.53-5.11,11.47,11.47,0,0,0-4.22-3.32,15.17,15.17,0,0,0-11.75,0,11.5,11.5,0,0,0-4.2,3.32,14.62,14.62,0,0,0-2.53,5.11,24,24,0,0,0-.85,6.58,23.79,23.79,0,0,0,.85,6.56,14.27,14.27,0,0,0,2.53,5.06,11.48,11.48,0,0,0,4.2,3.27A13.85,13.85,0,0,0,176.43,66.31Z" transform="translate(-2.74 -16.38)"/><path class="cls-2" d="M176.43,33.39a14.55,14.55,0,0,1,6.1,1.22A12.41,12.41,0,0,1,187,38a15,15,0,0,1,2.75,5.31,24.06,24.06,0,0,1,.93,6.91,23.71,23.71,0,0,1-.93,6.88A15,15,0,0,1,187,62.41a12.08,12.08,0,0,1-4.48,3.38,16.35,16.35,0,0,1-12.21,0,12.11,12.11,0,0,1-4.47-3.38,15,15,0,0,1-2.75-5.28,23.7,23.7,0,0,1-.93-6.88,24,24,0,0,1,.93-6.91A15,15,0,0,1,165.86,38a12.44,12.44,0,0,1,4.47-3.42A14.51,14.51,0,0,1,176.43,33.39Z" transform="translate(-2.74 -16.38)"/><path class="cls-2" d="M176.43,66.31a13.88,13.88,0,0,0,5.86-1.17,11.46,11.46,0,0,0,4.22-3.27A14.28,14.28,0,0,0,189,56.81a23.79,23.79,0,0,0,.85-6.56,24,24,0,0,0-.85-6.58,14.63,14.63,0,0,0-2.53-5.11,11.47,11.47,0,0,0-4.22-3.32,15.17,15.17,0,0,0-11.75,0,11.5,11.5,0,0,0-4.2,3.32,14.62,14.62,0,0,0-2.53,5.11,24,24,0,0,0-.85,6.58,23.79,23.79,0,0,0,.85,6.56,14.27,14.27,0,0,0,2.53,5.06,11.48,11.48,0,0,0,4.2,3.27A13.85,13.85,0,0,0,176.43,66.31Z" transform="translate(-2.74 -16.38)"/><polygon class="cls-1" points="59.53 17.47 60.65 17.66 84.59 50.13 83.47 49.95 59.53 17.47"/><polygon class="cls-2" points="59.53 17.47 60.65 17.66 84.59 50.13 83.47 49.95 59.53 17.47"/><text class="cls-3" transform="translate(87.66 65.46) scale(1.12 1)">LUX<tspan class="cls-4" x="20" y="0">O</tspan><tspan class="cls-5" x="28.24" y="0">V</tspan><tspan x="35.14" y="0">O STUDIOS</tspan></text><rect class="cls-1" x="87.72" y="53.99" width="100.54" height="1.24"/><rect class="cls-2" x="87.72" y="53.99" width="100.54" height="1.24"/></svg>